<svg xmlns="http://www.w3.org/2000/svg" width="248" height="251" fill="none"><g opacity=".3"><mask id="c" width="349.427" height="352.025" x="-50.472" y="-50.411" fill="#000" maskUnits="userSpaceOnUse"><path fill="#fff" d="M-50.472-50.411h349.427v352.025H-50.472z"/><path fill-rule="evenodd" d="M37.783 223.23c47.928 42.207 125.382 32.588 172.998-21.483 47.615-54.071 47.361-132.12-.568-174.326C162.285-14.785 84.831-5.167 37.215 48.904c-47.615 54.072-47.361 132.12.568 174.326Zm20.185-22.922c-36.707-32.325-36.902-92.1-.434-133.511C94 25.385 153.32 18.019 190.028 50.344c36.707 32.324 36.901 92.099.434 133.511-36.467 41.411-95.787 48.778-132.494 16.453Zm11.335-12.873c30.406 26.775 79.542 20.673 109.749-13.629 30.206-34.302 30.045-83.815-.36-110.59C148.286 36.44 99.15 42.541 68.943 76.843c-30.206 34.302-30.045 83.815.36 110.591Zm17.56-19.941c-20.644-18.179-20.753-51.796-.244-75.085 20.509-23.29 53.869-27.432 74.513-9.253 20.644 18.179 20.753 51.796.244 75.085-20.508 23.29-53.869 27.432-74.513 9.253Z" clip-rule="evenodd"/></mask><path fill="url(#a)" fill-opacity=".1" fill-rule="evenodd" d="M37.783 223.23c47.928 42.207 125.382 32.588 172.998-21.483 47.615-54.071 47.361-132.12-.568-174.326C162.285-14.785 84.831-5.167 37.215 48.904c-47.615 54.072-47.361 132.12.568 174.326Zm20.185-22.922c-36.707-32.325-36.902-92.1-.434-133.511C94 25.385 153.32 18.019 190.028 50.344c36.707 32.324 36.901 92.099.434 133.511-36.467 41.411-95.787 48.778-132.494 16.453Zm11.335-12.873c30.406 26.775 79.542 20.673 109.749-13.629 30.206-34.302 30.045-83.815-.36-110.59C148.286 36.44 99.15 42.541 68.943 76.843c-30.206 34.302-30.045 83.815.36 110.591Zm17.56-19.941c-20.644-18.179-20.753-51.796-.244-75.085 20.509-23.29 53.869-27.432 74.513-9.253 20.644 18.179 20.753 51.796.244 75.085-20.508 23.29-53.869 27.432-74.513 9.253Z" clip-rule="evenodd"/><path fill="url(#b)" fill-opacity=".3" d="M210.03 201.086c-47.328 53.745-124.155 63.162-171.587 21.394l-1.321 1.501c48.425 42.644 126.506 32.825 174.409-21.573l-1.501-1.322Zm-.478-172.914c47.432 41.769 47.806 119.17.478 172.914l1.501 1.322c47.903-54.398 47.769-133.093-.657-175.737l-1.322 1.5ZM37.966 49.565C85.293-4.179 162.12-13.597 209.552 28.172l1.322-1.501C162.448-15.973 84.368-6.154 36.464 48.244l1.502 1.321Zm.477 172.915c-47.431-41.769-47.805-119.17-.477-172.915l-1.501-1.321c-47.903 54.398-47.769 133.093.657 175.737l1.322-1.501Zm18.34-156.344c-36.755 41.738-36.68 102.16.524 134.923l1.322-1.501c-36.21-31.887-36.524-91.016-.345-132.1l-1.5-1.322ZM190.69 49.593C153.485 16.831 93.54 24.398 56.784 66.136l1.501 1.322c36.18-41.085 94.873-48.25 131.083-16.364l1.322-1.5Zm.524 134.923c36.755-41.739 36.68-102.16-.524-134.923l-1.322 1.501c36.21 31.887 36.524 91.015.345 132.1l1.501 1.322ZM57.307 201.059c37.204 32.762 97.151 25.195 133.906-16.543l-1.501-1.322c-36.18 41.084-94.873 48.25-131.083 16.364l-1.322 1.501Zm120.994-27.914c-29.919 33.975-78.428 39.877-108.337 13.539l-1.322 1.501c30.903 27.213 80.665 20.911 111.16-13.718l-1.501-1.322Zm-.27-109.18c29.908 26.338 30.189 75.205.27 109.18l1.501 1.322c30.495-34.629 30.453-84.79-.449-112.002l-1.322 1.5ZM69.694 77.506c29.919-33.975 78.428-39.877 108.337-13.54l1.322-1.5c-30.903-27.213-80.665-20.91-111.16 13.718l1.501 1.322Zm.27 109.179c-29.908-26.337-30.189-75.204-.27-109.18l-1.501-1.32c-30.495 34.628-30.453 84.788.45 112.001l1.321-1.501Zm15.904-94.936c-20.796 23.616-20.807 57.88.334 76.497l1.322-1.501c-20.147-17.742-20.376-50.712-.155-73.674l-1.5-1.322Zm75.925-9.343c-21.141-18.617-55.128-14.273-75.925 9.343l1.501 1.322c20.221-22.963 52.955-26.905 73.102-9.164l1.322-1.5Zm.334 76.497c20.797-23.616 20.807-57.88-.334-76.497l-1.322 1.501c20.147 17.742 20.376 50.712.155 73.674l1.501 1.322Zm-75.925 9.343c21.141 18.616 55.128 14.273 75.925-9.343l-1.501-1.322c-20.221 22.963-52.955 26.905-73.102 9.164l-1.322 1.501Z" mask="url(#c)"/></g><defs><linearGradient id="a" x1="296.996" x2="-51.985" y1="103.843" y2="96.829" gradientUnits="userSpaceOnUse"><stop stop-color="#fff"/><stop offset="1" stop-color="#fff" stop-opacity="0"/></linearGradient><linearGradient id="b" x1="296.996" x2="-51.985" y1="103.843" y2="96.829" gradientUnits="userSpaceOnUse"><stop stop-color="#fff"/><stop offset="1" stop-color="#fff" stop-opacity="0"/></linearGradient></defs></svg>