<svg xmlns="http://www.w3.org/2000/svg" width="1920" height="1393" fill="none"><path fill="#070708" d="M17.5 0h40v40h-40zm41 0h40v40h-40zm41 0h40v40h-40zm41 0h40v40h-40zm41 0h40v40h-40zm41 0h40v40h-40zm41 0h40v40h-40zm41 0h40v40h-40zm41 0h40v40h-40zm41 0h40v40h-40zm41 0h40v40h-40zm41 0h40v40h-40zm41 0h40v40h-40zm41 0h40v40h-40zm41 0h40v40h-40zm41 0h40v40h-40zm41 0h40v40h-40zm41 0h40v40h-40zm41 0h40v40h-40zm41 0h40v40h-40zm41 0h40v40h-40zm41 0h40v40h-40zm41 0h40v40h-40zm41 0h40v40h-40zm41 0h40v40h-40zm41 0h40v40h-40zm41 0h40v40h-40zm41 0h40v40h-40zm41 0h40v40h-40zm41 0h40v40h-40zm41 0h40v40h-40zm41 0h40v40h-40zm41 0h40v40h-40zm41 0h40v40h-40zm41 0h40v40h-40zm41 0h40v40h-40zm41 0h40v40h-40zm41 0h40v40h-40zm41 0h40v40h-40zm41 0h40v40h-40zm41 0h40v40h-40zm41 0h40v40h-40zm41 0h40v40h-40zm41 0h40v40h-40zm41 0h40v40h-40zm41 0h40v40h-40zM17.5 41h40v40h-40zm41 0h40v40h-40z"/><path fill="#0E0E10" d="M99.5 41h40v40h-40z"/><path fill="#070708" d="M140.5 41h40v40h-40zm41 0h40v40h-40zm41 0h40v40h-40zm41 0h40v40h-40zm41 0h40v40h-40zm41 0h40v40h-40zm41 0h40v40h-40zm41 0h40v40h-40zm41 0h40v40h-40zm41 0h40v40h-40zm41 0h40v40h-40zm41 0h40v40h-40zm41 0h40v40h-40zm41 0h40v40h-40zm41 0h40v40h-40zm41 0h40v40h-40zm41 0h40v40h-40zm41 0h40v40h-40zm41 0h40v40h-40zm41 0h40v40h-40zm41 0h40v40h-40zm41 0h40v40h-40zm41 0h40v40h-40zm41 0h40v40h-40zm41 0h40v40h-40zm41 0h40v40h-40zm41 0h40v40h-40zm41 0h40v40h-40zm41 0h40v40h-40zm41 0h40v40h-40zm41 0h40v40h-40zm41 0h40v40h-40zm41 0h40v40h-40zm41 0h40v40h-40zm41 0h40v40h-40zm41 0h40v40h-40zm41 0h40v40h-40zm41 0h40v40h-40zm41 0h40v40h-40zm41 0h40v40h-40zm41 0h40v40h-40zm41 0h40v40h-40zm41 0h40v40h-40zM17.5 82h40v40h-40zm41 0h40v40h-40zm41 0h40v40h-40zm41 0h40v40h-40zm41 0h40v40h-40zm41 0h40v40h-40zm41 0h40v40h-40zm41 0h40v40h-40zm41 0h40v40h-40zm41 0h40v40h-40zm41 0h40v40h-40zm41 0h40v40h-40zm41 0h40v40h-40zm41 0h40v40h-40zm41 0h40v40h-40zm41 0h40v40h-40zm41 0h40v40h-40zm41 0h40v40h-40zm41 0h40v40h-40zm41 0h40v40h-40zm41 0h40v40h-40zm41 0h40v40h-40zm41 0h40v40h-40zm41 0h40v40h-40zm41 0h40v40h-40z"/><path fill="#0E0E10" d="M1042.5 82h40v40h-40z"/><path fill="#070708" d="M1083.5 82h40v40h-40zm41 0h40v40h-40zm41 0h40v40h-40zm41 0h40v40h-40zm41 0h40v40h-40zm41 0h40v40h-40zm41 0h40v40h-40zm41 0h40v40h-40zm41 0h40v40h-40zm41 0h40v40h-40zm41 0h40v40h-40zm41 0h40v40h-40zm41 0h40v40h-40zm41 0h40v40h-40zm41 0h40v40h-40zm41 0h40v40h-40zm41 0h40v40h-40zm41 0h40v40h-40zm41 0h40v40h-40zm41 0h40v40h-40zm-1845 41h40v40h-40zm41 0h40v40h-40zm41 0h40v40h-40zm41 0h40v40h-40zm41 0h40v40h-40zm41 0h40v40h-40z"/><path fill="#0E0E10" d="M263.5 123h40v40h-40z"/><path fill="#070708" d="M304.5 123h40v40h-40zm41 0h40v40h-40zm41 0h40v40h-40zm41 0h40v40h-40zm41 0h40v40h-40zm41 0h40v40h-40zm41 0h40v40h-40zm41 0h40v40h-40zm41 0h40v40h-40zm41 0h40v40h-40zm41 0h40v40h-40zm41 0h40v40h-40z"/><path fill="#0E0E10" d="M796.5 123h40v40h-40z"/><path fill="#070708" d="M837.5 123h40v40h-40zm41 0h40v40h-40zm41 0h40v40h-40zm41 0h40v40h-40zm41 0h40v40h-40zm41 0h40v40h-40zm41 0h40v40h-40zm41 0h40v40h-40zm41 0h40v40h-40zm41 0h40v40h-40zm41 0h40v40h-40zm41 0h40v40h-40zm41 0h40v40h-40zm41 0h40v40h-40z"/><path fill="#0E0E10" d="M1411.5 123h40v40h-40z"/><path fill="#070708" d="M1452.5 123h40v40h-40zm41 0h40v40h-40zm41 0h40v40h-40z"/><path fill="#0E0E10" d="M1575.5 123h40v40h-40z"/><path fill="#070708" d="M1616.5 123h40v40h-40zm41 0h40v40h-40zm41 0h40v40h-40z"/><path fill="#0E0E10" d="M1739.5 123h40v40h-40z"/><path fill="#070708" d="M1780.5 123h40v40h-40zm41 0h40v40h-40zm41 0h40v40h-40zm-1845 41h40v40h-40zm41 0h40v40h-40zm41 0h40v40h-40zm41 0h40v40h-40zm41 0h40v40h-40zm41 0h40v40h-40zm41 0h40v40h-40zm41 0h40v40h-40zm41 0h40v40h-40zm41 0h40v40h-40z"/><path fill="#0E0E10" d="M427.5 164h40v40h-40z"/><path fill="#070708" d="M468.5 164h40v40h-40zm41 0h40v40h-40zm41 0h40v40h-40zm41 0h40v40h-40zm41 0h40v40h-40z"/><path fill="#0E0E10" d="M673.5 164h40v40h-40z"/><path fill="#070708" d="M714.5 164h40v40h-40zm41 0h40v40h-40zm41 0h40v40h-40zm41 0h40v40h-40zm41 0h40v40h-40zm41 0h40v40h-40zm41 0h40v40h-40zm41 0h40v40h-40zm41 0h40v40h-40zm41 0h40v40h-40z"/><path fill="#0E0E10" d="M1124.5 164h40v40h-40z"/><path fill="#070708" d="M1165.5 164h40v40h-40zm41 0h40v40h-40z"/><path fill="#0E0E10" d="M1247.5 164h40v40h-40z"/><path fill="#070708" d="M1288.5 164h40v40h-40zm41 0h40v40h-40zm41 0h40v40h-40zm41 0h40v40h-40zm41 0h40v40h-40zm41 0h40v40h-40zm41 0h40v40h-40zm41 0h40v40h-40zm41 0h40v40h-40zm41 0h40v40h-40zm41 0h40v40h-40zm41 0h40v40h-40zm41 0h40v40h-40zm41 0h40v40h-40zm41 0h40v40h-40zm-1845 41h40v40h-40zm41 0h40v40h-40zm41 0h40v40h-40zm41 0h40v40h-40zm41 0h40v40h-40zm41 0h40v40h-40zm41 0h40v40h-40zm41 0h40v40h-40zm41 0h40v40h-40zm41 0h40v40h-40zm41 0h40v40h-40zm41 0h40v40h-40zm41 0h40v40h-40zm41 0h40v40h-40zm41 0h40v40h-40zm41 0h40v40h-40zm41 0h40v40h-40zm41 0h40v40h-40zm41 0h40v40h-40zm41 0h40v40h-40zm41 0h40v40h-40zm41 0h40v40h-40zm41 0h40v40h-40zm41 0h40v40h-40zm41 0h40v40h-40zm41 0h40v40h-40zm41 0h40v40h-40zm41 0h40v40h-40zm41 0h40v40h-40zm41 0h40v40h-40zm41 0h40v40h-40zm41 0h40v40h-40zm41 0h40v40h-40zm41 0h40v40h-40zm41 0h40v40h-40zm41 0h40v40h-40zm41 0h40v40h-40zm41 0h40v40h-40zm41 0h40v40h-40zm41 0h40v40h-40zm41 0h40v40h-40zm41 0h40v40h-40zm41 0h40v40h-40zm41 0h40v40h-40zm41 0h40v40h-40zm41 0h40v40h-40zm-1845 41h40v40h-40zm41 0h40v40h-40zm41 0h40v40h-40zm41 0h40v40h-40zm41 0h40v40h-40zm41 0h40v40h-40zm41 0h40v40h-40z"/><path fill="#0E0E10" d="M304.5 246h40v40h-40z"/><path fill="#070708" d="M345.5 246h40v40h-40zm41 0h40v40h-40zm41 0h40v40h-40zm41 0h40v40h-40zm41 0h40v40h-40zm41 0h40v40h-40zm41 0h40v40h-40zm41 0h40v40h-40zm41 0h40v40h-40zm41 0h40v40h-40zm41 0h40v40h-40zm41 0h40v40h-40zm41 0h40v40h-40zm41 0h40v40h-40zm41 0h40v40h-40zm41 0h40v40h-40zm41 0h40v40h-40zm41 0h40v40h-40zm41 0h40v40h-40zm41 0h40v40h-40zm41 0h40v40h-40zm41 0h40v40h-40zm41 0h40v40h-40zm41 0h40v40h-40zm41 0h40v40h-40zm41 0h40v40h-40z"/><path fill="#0E0E10" d="M1411.5 246h40v40h-40z"/><path fill="#070708" d="M1452.5 246h40v40h-40zm41 0h40v40h-40zm41 0h40v40h-40zm41 0h40v40h-40zm41 0h40v40h-40zm41 0h40v40h-40zm41 0h40v40h-40zm41 0h40v40h-40zm41 0h40v40h-40zm41 0h40v40h-40zm41 0h40v40h-40zm-1845 41h40v40h-40zm41 0h40v40h-40zm41 0h40v40h-40zm41 0h40v40h-40zm41 0h40v40h-40zm41 0h40v40h-40zm41 0h40v40h-40zm41 0h40v40h-40zm41 0h40v40h-40zm41 0h40v40h-40zm41 0h40v40h-40zm41 0h40v40h-40zm41 0h40v40h-40zm41 0h40v40h-40zm41 0h40v40h-40zm41 0h40v40h-40zm41 0h40v40h-40zm41 0h40v40h-40zm41 0h40v40h-40zm41 0h40v40h-40zm41 0h40v40h-40zm41 0h40v40h-40zm41 0h40v40h-40zm41 0h40v40h-40zm41 0h40v40h-40zm41 0h40v40h-40zm41 0h40v40h-40zm41 0h40v40h-40z"/><path fill="#0E0E10" d="M1165.5 287h40v40h-40z"/><path fill="#070708" d="M1206.5 287h40v40h-40zm41 0h40v40h-40zm41 0h40v40h-40zm41 0h40v40h-40zm41 0h40v40h-40zm41 0h40v40h-40zm41 0h40v40h-40zm41 0h40v40h-40zm41 0h40v40h-40zm41 0h40v40h-40zm41 0h40v40h-40zm41 0h40v40h-40zm41 0h40v40h-40zm41 0h40v40h-40zm41 0h40v40h-40zm41 0h40v40h-40zm41 0h40v40h-40zm-1845 41h40v40h-40zm41 0h40v40h-40zm41 0h40v40h-40zm41 0h40v40h-40zm41 0h40v40h-40zm41 0h40v40h-40zm41 0h40v40h-40zm41 0h40v40h-40zm41 0h40v40h-40zm41 0h40v40h-40zm41 0h40v40h-40zm41 0h40v40h-40zm41 0h40v40h-40z"/><path fill="#0E0E10" d="M550.5 328h40v40h-40z"/><path fill="#070708" d="M591.5 328h40v40h-40zm41 0h40v40h-40zm41 0h40v40h-40zm41 0h40v40h-40zm41 0h40v40h-40zm41 0h40v40h-40z"/><path fill="#0E0E10" d="M837.5 328h40v40h-40z"/><path fill="#070708" d="M878.5 328h40v40h-40zm41 0h40v40h-40zm41 0h40v40h-40zm41 0h40v40h-40zm41 0h40v40h-40zm41 0h40v40h-40zm41 0h40v40h-40zm41 0h40v40h-40zm41 0h40v40h-40zm41 0h40v40h-40zm41 0h40v40h-40zm41 0h40v40h-40zm41 0h40v40h-40zm41 0h40v40h-40zm41 0h40v40h-40zm41 0h40v40h-40zm41 0h40v40h-40zm41 0h40v40h-40zm41 0h40v40h-40zm41 0h40v40h-40zm41 0h40v40h-40zm41 0h40v40h-40z"/><path fill="#0E0E10" d="M1780.5 328h40v40h-40z"/><path fill="#070708" d="M1821.5 328h40v40h-40zm41 0h40v40h-40zm-1845 41h40v40h-40zm41 0h40v40h-40zm41 0h40v40h-40zm41 0h40v40h-40zm41 0h40v40h-40zm41 0h40v40h-40zm41 0h40v40h-40zm41 0h40v40h-40zm41 0h40v40h-40zm41 0h40v40h-40zm41 0h40v40h-40zm41 0h40v40h-40zm41 0h40v40h-40zm41 0h40v40h-40zm41 0h40v40h-40zm41 0h40v40h-40zm41 0h40v40h-40zm41 0h40v40h-40zm41 0h40v40h-40zm41 0h40v40h-40zm41 0h40v40h-40zm41 0h40v40h-40zm41 0h40v40h-40zm41 0h40v40h-40zm41 0h40v40h-40zm41 0h40v40h-40zm41 0h40v40h-40zm41 0h40v40h-40zm41 0h40v40h-40zm41 0h40v40h-40zm41 0h40v40h-40zm41 0h40v40h-40zm41 0h40v40h-40zm41 0h40v40h-40zm41 0h40v40h-40zm41 0h40v40h-40zm41 0h40v40h-40zm41 0h40v40h-40zm41 0h40v40h-40zm41 0h40v40h-40zm41 0h40v40h-40zm41 0h40v40h-40zm41 0h40v40h-40zm41 0h40v40h-40zm41 0h40v40h-40zm41 0h40v40h-40zm-1845 41h40v40h-40zm41 0h40v40h-40zm41 0h40v40h-40z"/><path fill="#0E0E10" d="M140.5 410h40v40h-40z"/><path fill="#070708" d="M181.5 410h40v40h-40zm41 0h40v40h-40zm41 0h40v40h-40zm41 0h40v40h-40zm41 0h40v40h-40zm41 0h40v40h-40zm41 0h40v40h-40zm41 0h40v40h-40zm41 0h40v40h-40zm41 0h40v40h-40zm41 0h40v40h-40zm41 0h40v40h-40zm41 0h40v40h-40zm41 0h40v40h-40zm41 0h40v40h-40zm41 0h40v40h-40zm41 0h40v40h-40zm41 0h40v40h-40zm41 0h40v40h-40zm41 0h40v40h-40zm41 0h40v40h-40zm41 0h40v40h-40zm41 0h40v40h-40zm41 0h40v40h-40zm41 0h40v40h-40zm41 0h40v40h-40zm41 0h40v40h-40zm41 0h40v40h-40zm41 0h40v40h-40zm41 0h40v40h-40z"/><path fill="#0E0E10" d="M1411.5 410h40v40h-40z"/><path fill="#070708" d="M1452.5 410h40v40h-40zm41 0h40v40h-40zm41 0h40v40h-40zm41 0h40v40h-40zm41 0h40v40h-40zm41 0h40v40h-40zm41 0h40v40h-40zm41 0h40v40h-40zm41 0h40v40h-40zm41 0h40v40h-40zm41 0h40v40h-40zm-1845 41h40v40h-40zm41 0h40v40h-40zm41 0h40v40h-40zm41 0h40v40h-40zm41 0h40v40h-40zm41 0h40v40h-40zm41 0h40v40h-40zm41 0h40v40h-40zm41 0h40v40h-40zm41 0h40v40h-40zm41 0h40v40h-40zm41 0h40v40h-40zm41 0h40v40h-40zm41 0h40v40h-40zm41 0h40v40h-40zm41 0h40v40h-40zm41 0h40v40h-40zm41 0h40v40h-40zm41 0h40v40h-40zm41 0h40v40h-40zm41 0h40v40h-40zm41 0h40v40h-40zm41 0h40v40h-40zm41 0h40v40h-40zm41 0h40v40h-40zm41 0h40v40h-40zm41 0h40v40h-40zm41 0h40v40h-40zm41 0h40v40h-40zm41 0h40v40h-40zm41 0h40v40h-40zm41 0h40v40h-40zm41 0h40v40h-40zm41 0h40v40h-40zm41 0h40v40h-40zm41 0h40v40h-40zm41 0h40v40h-40zm41 0h40v40h-40zm41 0h40v40h-40zm41 0h40v40h-40zm41 0h40v40h-40zm41 0h40v40h-40zm41 0h40v40h-40zm41 0h40v40h-40zm41 0h40v40h-40zm41 0h40v40h-40zm-1845 41h40v40h-40zm41 0h40v40h-40zm41 0h40v40h-40zm41 0h40v40h-40zm41 0h40v40h-40zm41 0h40v40h-40zm41 0h40v40h-40zm41 0h40v40h-40z"/><path fill="#0E0E10" d="M345.5 492h40v40h-40z"/><path fill="#070708" d="M386.5 492h40v40h-40zm41 0h40v40h-40zm41 0h40v40h-40zm41 0h40v40h-40zm41 0h40v40h-40zm41 0h40v40h-40zm41 0h40v40h-40zm41 0h40v40h-40zm41 0h40v40h-40zm41 0h40v40h-40zm41 0h40v40h-40zm41 0h40v40h-40zm41 0h40v40h-40zm41 0h40v40h-40zm41 0h40v40h-40zm41 0h40v40h-40zm41 0h40v40h-40z"/><path fill="#0E0E10" d="M1083.5 492h40v40h-40z"/><path fill="#070708" d="M1124.5 492h40v40h-40zm41 0h40v40h-40zm41 0h40v40h-40zm41 0h40v40h-40zm41 0h40v40h-40zm41 0h40v40h-40zm41 0h40v40h-40zm41 0h40v40h-40zm41 0h40v40h-40zm41 0h40v40h-40zm41 0h40v40h-40zm41 0h40v40h-40zm41 0h40v40h-40z"/><path fill="#0E0E10" d="M1657.5 492h40v40h-40z"/><path fill="#070708" d="M1698.5 492h40v40h-40zm41 0h40v40h-40zm41 0h40v40h-40zm41 0h40v40h-40zm41 0h40v40h-40zm-1845 41h40v40h-40zm41 0h40v40h-40zm41 0h40v40h-40zm41 0h40v40h-40zm41 0h40v40h-40zm41 0h40v40h-40zm41 0h40v40h-40zm41 0h40v40h-40zm41 0h40v40h-40zm41 0h40v40h-40zm41 0h40v40h-40zm41 0h40v40h-40zm41 0h40v40h-40zm41 0h40v40h-40zm41 0h40v40h-40zm41 0h40v40h-40zm41 0h40v40h-40zm41 0h40v40h-40zm41 0h40v40h-40z"/><path fill="#0E0E10" d="M796.5 533h40v40h-40z"/><path fill="#070708" d="M837.5 533h40v40h-40zm41 0h40v40h-40zm41 0h40v40h-40zm41 0h40v40h-40zm41 0h40v40h-40zm41 0h40v40h-40zm41 0h40v40h-40zm41 0h40v40h-40zm41 0h40v40h-40zm41 0h40v40h-40zm41 0h40v40h-40zm41 0h40v40h-40zm41 0h40v40h-40zm41 0h40v40h-40zm41 0h40v40h-40zm41 0h40v40h-40zm41 0h40v40h-40zm41 0h40v40h-40zm41 0h40v40h-40zm41 0h40v40h-40zm41 0h40v40h-40zm41 0h40v40h-40zm41 0h40v40h-40zm41 0h40v40h-40zm41 0h40v40h-40zm41 0h40v40h-40zm-1845 41h40v40h-40zm41 0h40v40h-40zm41 0h40v40h-40zm41 0h40v40h-40zm41 0h40v40h-40zm41 0h40v40h-40zm41 0h40v40h-40zm41 0h40v40h-40zm41 0h40v40h-40zm41 0h40v40h-40zm41 0h40v40h-40zm41 0h40v40h-40zm41 0h40v40h-40z"/><path fill="#0E0E10" d="M550.5 574h40v40h-40z"/><path fill="#070708" d="M591.5 574h40v40h-40zm41 0h40v40h-40zm41 0h40v40h-40zm41 0h40v40h-40zm41 0h40v40h-40zm41 0h40v40h-40zm41 0h40v40h-40zm41 0h40v40h-40zm41 0h40v40h-40zm41 0h40v40h-40zm41 0h40v40h-40zm41 0h40v40h-40zm41 0h40v40h-40zm41 0h40v40h-40zm41 0h40v40h-40zm41 0h40v40h-40zm41 0h40v40h-40zm41 0h40v40h-40zm41 0h40v40h-40zm41 0h40v40h-40zm41 0h40v40h-40zm41 0h40v40h-40zm41 0h40v40h-40zm41 0h40v40h-40zm41 0h40v40h-40zm41 0h40v40h-40zm41 0h40v40h-40zm41 0h40v40h-40zm41 0h40v40h-40zm41 0h40v40h-40zm41 0h40v40h-40zm41 0h40v40h-40zm-1845 41h40v40h-40zm41 0h40v40h-40zm41 0h40v40h-40zm41 0h40v40h-40zm41 0h40v40h-40zm41 0h40v40h-40zm41 0h40v40h-40zm41 0h40v40h-40zm41 0h40v40h-40zm41 0h40v40h-40zm41 0h40v40h-40zm41 0h40v40h-40zm41 0h40v40h-40zm41 0h40v40h-40zm41 0h40v40h-40zm41 0h40v40h-40zm41 0h40v40h-40zm41 0h40v40h-40zm41 0h40v40h-40zm41 0h40v40h-40zm41 0h40v40h-40zm41 0h40v40h-40zm41 0h40v40h-40zm41 0h40v40h-40zm41 0h40v40h-40zm41 0h40v40h-40zm41 0h40v40h-40zm41 0h40v40h-40zm41 0h40v40h-40zm41 0h40v40h-40zm41 0h40v40h-40zm41 0h40v40h-40zm41 0h40v40h-40zm41 0h40v40h-40zm41 0h40v40h-40zm41 0h40v40h-40zm41 0h40v40h-40z"/><path fill="#0E0E10" d="M1534.5 615h40v40h-40z"/><path fill="#070708" d="M1575.5 615h40v40h-40zm41 0h40v40h-40zm41 0h40v40h-40zm41 0h40v40h-40zm41 0h40v40h-40zm41 0h40v40h-40zm41 0h40v40h-40zm41 0h40v40h-40zm-1845 41h40v40h-40zm41 0h40v40h-40zm41 0h40v40h-40zm41 0h40v40h-40zm41 0h40v40h-40zm41 0h40v40h-40zm41 0h40v40h-40zm41 0h40v40h-40zm41 0h40v40h-40zm41 0h40v40h-40zm41 0h40v40h-40zm41 0h40v40h-40zm41 0h40v40h-40zm41 0h40v40h-40zm41 0h40v40h-40zm41 0h40v40h-40zm41 0h40v40h-40zm41 0h40v40h-40zm41 0h40v40h-40zm41 0h40v40h-40zm41 0h40v40h-40zm41 0h40v40h-40zm41 0h40v40h-40zm41 0h40v40h-40z"/><path fill="#0E0E10" d="M1001.5 656h40v40h-40z"/><path fill="#070708" d="M1042.5 656h40v40h-40zm41 0h40v40h-40zm41 0h40v40h-40zm41 0h40v40h-40zm41 0h40v40h-40zm41 0h40v40h-40z"/><path fill="#0E0E10" d="M1288.5 656h40v40h-40z"/><path fill="#070708" d="M1329.5 656h40v40h-40zm41 0h40v40h-40zm41 0h40v40h-40zm41 0h40v40h-40zm41 0h40v40h-40zm41 0h40v40h-40zm41 0h40v40h-40zm41 0h40v40h-40zm41 0h40v40h-40zm41 0h40v40h-40zm41 0h40v40h-40zm41 0h40v40h-40z"/><path fill="#0E0E10" d="M1821.5 656h40v40h-40z"/><path fill="#070708" d="M1862.5 656h40v40h-40zm-1845 41h40v40h-40zm41 0h40v40h-40zm41 0h40v40h-40zm41 0h40v40h-40zm41 0h40v40h-40zm41 0h40v40h-40zm41 0h40v40h-40zm41 0h40v40h-40zm41 0h40v40h-40z"/><path fill="#0E0E10" d="M386.5 697h40v40h-40z"/><path fill="#070708" d="M427.5 697h40v40h-40zm41 0h40v40h-40zm41 0h40v40h-40zm41 0h40v40h-40zm41 0h40v40h-40zm41 0h40v40h-40zm41 0h40v40h-40zm41 0h40v40h-40zm41 0h40v40h-40zm41 0h40v40h-40zm41 0h40v40h-40zm41 0h40v40h-40zm41 0h40v40h-40zm41 0h40v40h-40zm41 0h40v40h-40zm41 0h40v40h-40zm41 0h40v40h-40zm41 0h40v40h-40zm41 0h40v40h-40zm41 0h40v40h-40zm41 0h40v40h-40zm41 0h40v40h-40zm41 0h40v40h-40zm41 0h40v40h-40zm41 0h40v40h-40zm41 0h40v40h-40zm41 0h40v40h-40zm41 0h40v40h-40zm41 0h40v40h-40zm41 0h40v40h-40zm41 0h40v40h-40zm41 0h40v40h-40zm41 0h40v40h-40zm41 0h40v40h-40zm41 0h40v40h-40zm41 0h40v40h-40zm-1845 41h40v40h-40zm41 0h40v40h-40zm41 0h40v40h-40z"/><path fill="#0E0E10" d="M140.5 738h40v40h-40z"/><path fill="#070708" d="M181.5 738h40v40h-40zm41 0h40v40h-40zm41 0h40v40h-40zm41 0h40v40h-40zm41 0h40v40h-40zm41 0h40v40h-40zm41 0h40v40h-40zm41 0h40v40h-40zm41 0h40v40h-40zm41 0h40v40h-40zm41 0h40v40h-40zm41 0h40v40h-40zm41 0h40v40h-40zm41 0h40v40h-40zm41 0h40v40h-40zm41 0h40v40h-40z"/><path fill="#0E0E10" d="M837.5 738h40v40h-40z"/><path fill="#070708" d="M878.5 738h40v40h-40zm41 0h40v40h-40zm41 0h40v40h-40zm41 0h40v40h-40zm41 0h40v40h-40zm41 0h40v40h-40zm41 0h40v40h-40zm41 0h40v40h-40zm41 0h40v40h-40zm41 0h40v40h-40zm41 0h40v40h-40zm41 0h40v40h-40zm41 0h40v40h-40zm41 0h40v40h-40zm41 0h40v40h-40zm41 0h40v40h-40zm41 0h40v40h-40zm41 0h40v40h-40zm41 0h40v40h-40zm41 0h40v40h-40zm41 0h40v40h-40zm41 0h40v40h-40zm41 0h40v40h-40zm41 0h40v40h-40zm41 0h40v40h-40zm-1845 41h40v40h-40zm41 0h40v40h-40zm41 0h40v40h-40zm41 0h40v40h-40zm41 0h40v40h-40zm41 0h40v40h-40zm41 0h40v40h-40zm41 0h40v40h-40zm41 0h40v40h-40zm41 0h40v40h-40zm41 0h40v40h-40zm41 0h40v40h-40zm41 0h40v40h-40zm41 0h40v40h-40zm41 0h40v40h-40zm41 0h40v40h-40zm41 0h40v40h-40zm41 0h40v40h-40zm41 0h40v40h-40zm41 0h40v40h-40zm41 0h40v40h-40zm41 0h40v40h-40zm41 0h40v40h-40zm41 0h40v40h-40zm41 0h40v40h-40zm41 0h40v40h-40zm41 0h40v40h-40zm41 0h40v40h-40zm41 0h40v40h-40zm41 0h40v40h-40zm41 0h40v40h-40zm41 0h40v40h-40zm41 0h40v40h-40zm41 0h40v40h-40zm41 0h40v40h-40zm41 0h40v40h-40zm41 0h40v40h-40zm41 0h40v40h-40zm41 0h40v40h-40zm41 0h40v40h-40zm41 0h40v40h-40zm41 0h40v40h-40zm41 0h40v40h-40zm41 0h40v40h-40zm41 0h40v40h-40zm41 0h40v40h-40zm-1845 41h40v40h-40zm41 0h40v40h-40zm41 0h40v40h-40zm41 0h40v40h-40zm41 0h40v40h-40zm41 0h40v40h-40zm41 0h40v40h-40zm41 0h40v40h-40zm41 0h40v40h-40zm41 0h40v40h-40zm41 0h40v40h-40zm41 0h40v40h-40zm41 0h40v40h-40zm41 0h40v40h-40zm41 0h40v40h-40zm41 0h40v40h-40zm41 0h40v40h-40zm41 0h40v40h-40zm41 0h40v40h-40zm41 0h40v40h-40zm41 0h40v40h-40zm41 0h40v40h-40zm41 0h40v40h-40zm41 0h40v40h-40zm41 0h40v40h-40zm41 0h40v40h-40zm41 0h40v40h-40zm41 0h40v40h-40zm41 0h40v40h-40zm41 0h40v40h-40z"/><path fill="#0E0E10" d="M1247.5 820h40v40h-40z"/><path fill="#070708" d="M1288.5 820h40v40h-40zm41 0h40v40h-40zm41 0h40v40h-40zm41 0h40v40h-40zm41 0h40v40h-40zm41 0h40v40h-40z"/><path fill="#0E0E10" d="M1534.5 820h40v40h-40z"/><path fill="#070708" d="M1575.5 820h40v40h-40zm41 0h40v40h-40z"/><path fill="#0E0E10" d="M1657.5 820h40v40h-40z"/><path fill="#070708" d="M1698.5 820h40v40h-40zm41 0h40v40h-40zm41 0h40v40h-40zm41 0h40v40h-40zm41 0h40v40h-40zm-1845 41h40v40h-40zm41 0h40v40h-40zm41 0h40v40h-40zm41 0h40v40h-40zm41 0h40v40h-40zm41 0h40v40h-40zm41 0h40v40h-40zm41 0h40v40h-40zm41 0h40v40h-40zm41 0h40v40h-40zm41 0h40v40h-40zm41 0h40v40h-40zm41 0h40v40h-40zm41 0h40v40h-40zm41 0h40v40h-40zm41 0h40v40h-40zm41 0h40v40h-40zm41 0h40v40h-40zm41 0h40v40h-40zm41 0h40v40h-40zm41 0h40v40h-40zm41 0h40v40h-40zm41 0h40v40h-40zm41 0h40v40h-40zm41 0h40v40h-40zm41 0h40v40h-40zm41 0h40v40h-40zm41 0h40v40h-40zm41 0h40v40h-40zm41 0h40v40h-40zm41 0h40v40h-40zm41 0h40v40h-40zm41 0h40v40h-40zm41 0h40v40h-40zm41 0h40v40h-40zm41 0h40v40h-40zm41 0h40v40h-40zm41 0h40v40h-40zm41 0h40v40h-40zm41 0h40v40h-40zm41 0h40v40h-40zm41 0h40v40h-40zm41 0h40v40h-40zm41 0h40v40h-40zm41 0h40v40h-40zm41 0h40v40h-40zm-1845 41h40v40h-40zm41 0h40v40h-40zm41 0h40v40h-40zm41 0h40v40h-40zm41 0h40v40h-40zm41 0h40v40h-40zm41 0h40v40h-40zm41 0h40v40h-40zm41 0h40v40h-40zm41 0h40v40h-40zm41 0h40v40h-40zm41 0h40v40h-40z"/><path fill="#0E0E10" d="M509.5 902h40v40h-40z"/><path fill="#070708" d="M550.5 902h40v40h-40zm41 0h40v40h-40zm41 0h40v40h-40zm41 0h40v40h-40zm41 0h40v40h-40z"/><path fill="#0E0E10" d="M755.5 902h40v40h-40z"/><path fill="#070708" d="M796.5 902h40v40h-40zm41 0h40v40h-40zm41 0h40v40h-40zm41 0h40v40h-40zm41 0h40v40h-40zm41 0h40v40h-40z"/><path fill="#0E0E10" d="M1042.5 902h40v40h-40z"/><path fill="#070708" d="M1083.5 902h40v40h-40zm41 0h40v40h-40zm41 0h40v40h-40zm41 0h40v40h-40zm41 0h40v40h-40zm41 0h40v40h-40zm41 0h40v40h-40zm41 0h40v40h-40zm41 0h40v40h-40zm41 0h40v40h-40zm41 0h40v40h-40zm41 0h40v40h-40zm41 0h40v40h-40zm41 0h40v40h-40zm41 0h40v40h-40zm41 0h40v40h-40zm41 0h40v40h-40zm41 0h40v40h-40zm41 0h40v40h-40zm41 0h40v40h-40zm-1845 41h40v40h-40zm41 0h40v40h-40zm41 0h40v40h-40zm41 0h40v40h-40zm41 0h40v40h-40zm41 0h40v40h-40zm41 0h40v40h-40zm41 0h40v40h-40zm41 0h40v40h-40zm41 0h40v40h-40zm41 0h40v40h-40zm41 0h40v40h-40zm41 0h40v40h-40zm41 0h40v40h-40zm41 0h40v40h-40zm41 0h40v40h-40zm41 0h40v40h-40zm41 0h40v40h-40zm41 0h40v40h-40zm41 0h40v40h-40zm41 0h40v40h-40zm41 0h40v40h-40zm41 0h40v40h-40zm41 0h40v40h-40zm41 0h40v40h-40zm41 0h40v40h-40zm41 0h40v40h-40zm41 0h40v40h-40zm41 0h40v40h-40zm41 0h40v40h-40zm41 0h40v40h-40zm41 0h40v40h-40zm41 0h40v40h-40zm41 0h40v40h-40zm41 0h40v40h-40zm41 0h40v40h-40zm41 0h40v40h-40zm41 0h40v40h-40zm41 0h40v40h-40zm41 0h40v40h-40zm41 0h40v40h-40zm41 0h40v40h-40zm41 0h40v40h-40zm41 0h40v40h-40zm41 0h40v40h-40zm41 0h40v40h-40zm-1845 41h40v40h-40zm41 0h40v40h-40zm41 0h40v40h-40z"/><path fill="#0E0E10" d="M140.5 984h40v40h-40z"/><path fill="#070708" d="M181.5 984h40v40h-40zm41 0h40v40h-40zm41 0h40v40h-40zm41 0h40v40h-40zm41 0h40v40h-40zm41 0h40v40h-40zm41 0h40v40h-40zm41 0h40v40h-40zm41 0h40v40h-40zm41 0h40v40h-40zm41 0h40v40h-40zm41 0h40v40h-40zm41 0h40v40h-40zm41 0h40v40h-40zm41 0h40v40h-40zm41 0h40v40h-40zm41 0h40v40h-40zm41 0h40v40h-40zm41 0h40v40h-40zm41 0h40v40h-40zm41 0h40v40h-40zm41 0h40v40h-40zm41 0h40v40h-40zm41 0h40v40h-40zm41 0h40v40h-40zm41 0h40v40h-40zm41 0h40v40h-40zm41 0h40v40h-40zm41 0h40v40h-40zm41 0h40v40h-40zm41 0h40v40h-40zm41 0h40v40h-40zm41 0h40v40h-40zm41 0h40v40h-40zm41 0h40v40h-40zm41 0h40v40h-40zm41 0h40v40h-40zm41 0h40v40h-40zm41 0h40v40h-40zm41 0h40v40h-40zm41 0h40v40h-40zm41 0h40v40h-40zm-1845 41h40v40h-40zm41 0h40v40h-40zm41 0h40v40h-40zm41 0h40v40h-40zm41 0h40v40h-40zm41 0h40v40h-40zm41 0h40v40h-40zm41 0h40v40h-40zm41 0h40v40h-40zm41 0h40v40h-40zm41 0h40v40h-40zm41 0h40v40h-40zm41 0h40v40h-40zm41 0h40v40h-40zm41 0h40v40h-40zm41 0h40v40h-40zm41 0h40v40h-40zm41 0h40v40h-40zm41 0h40v40h-40zm41 0h40v40h-40zm41 0h40v40h-40zm41 0h40v40h-40zm41 0h40v40h-40zm41 0h40v40h-40zm41 0h40v40h-40zm41 0h40v40h-40zm41 0h40v40h-40zm41 0h40v40h-40zm41 0h40v40h-40zm41 0h40v40h-40zm41 0h40v40h-40zm41 0h40v40h-40zm41 0h40v40h-40zm41 0h40v40h-40zm41 0h40v40h-40zm41 0h40v40h-40zm41 0h40v40h-40zm41 0h40v40h-40zm41 0h40v40h-40zm41 0h40v40h-40zm41 0h40v40h-40z"/><path fill="#0E0E10" d="M1698.5 1025h40v40h-40z"/><path fill="#070708" d="M1739.5 1025h40v40h-40zm41 0h40v40h-40zm41 0h40v40h-40zm41 0h40v40h-40zm-1845 41h40v40h-40zm41 0h40v40h-40zm41 0h40v40h-40zm41 0h40v40h-40zm41 0h40v40h-40zm41 0h40v40h-40zm41 0h40v40h-40z"/><path fill="#0E0E10" d="M304.5 1066h40v40h-40z"/><path fill="#070708" d="M345.5 1066h40v40h-40zm41 0h40v40h-40zm41 0h40v40h-40zm41 0h40v40h-40zm41 0h40v40h-40zm41 0h40v40h-40zm41 0h40v40h-40zm41 0h40v40h-40zm41 0h40v40h-40zm41 0h40v40h-40zm41 0h40v40h-40zm41 0h40v40h-40zm41 0h40v40h-40zm41 0h40v40h-40zm41 0h40v40h-40z"/><path fill="#0E0E10" d="M960.5 1066h40v40h-40z"/><path fill="#070708" d="M1001.5 1066h40v40h-40zm41 0h40v40h-40zm41 0h40v40h-40zm41 0h40v40h-40zm41 0h40v40h-40zm41 0h40v40h-40zm41 0h40v40h-40z"/><path fill="#0E0E10" d="M1288.5 1066h40v40h-40z"/><path fill="#070708" d="M1329.5 1066h40v40h-40zm41 0h40v40h-40zm41 0h40v40h-40zm41 0h40v40h-40zm41 0h40v40h-40z"/><path fill="#0E0E10" d="M1534.5 1066h40v40h-40z"/><path fill="#070708" d="M1575.5 1066h40v40h-40zm41 0h40v40h-40zm41 0h40v40h-40zm41 0h40v40h-40zm41 0h40v40h-40zm41 0h40v40h-40zm41 0h40v40h-40zm41 0h40v40h-40zm-1845 41h40v40h-40zm41 0h40v40h-40zm41 0h40v40h-40zm41 0h40v40h-40zm41 0h40v40h-40zm41 0h40v40h-40zm41 0h40v40h-40zm41 0h40v40h-40zm41 0h40v40h-40zm41 0h40v40h-40zm41 0h40v40h-40zm41 0h40v40h-40zm41 0h40v40h-40zm41 0h40v40h-40zm41 0h40v40h-40zm41 0h40v40h-40z"/><path fill="#0E0E10" d="M673.5 1107h40v40h-40z"/><path fill="#070708" d="M714.5 1107h40v40h-40zm41 0h40v40h-40zm41 0h40v40h-40zm41 0h40v40h-40zm41 0h40v40h-40zm41 0h40v40h-40zm41 0h40v40h-40zm41 0h40v40h-40zm41 0h40v40h-40zm41 0h40v40h-40zm41 0h40v40h-40zm41 0h40v40h-40zm41 0h40v40h-40zm41 0h40v40h-40zm41 0h40v40h-40zm41 0h40v40h-40zm41 0h40v40h-40zm41 0h40v40h-40zm41 0h40v40h-40zm41 0h40v40h-40zm41 0h40v40h-40zm41 0h40v40h-40zm41 0h40v40h-40zm41 0h40v40h-40zm41 0h40v40h-40zm41 0h40v40h-40zm41 0h40v40h-40zm41 0h40v40h-40zm41 0h40v40h-40zm-1845 41h40v40h-40zm41 0h40v40h-40zm41 0h40v40h-40zm41 0h40v40h-40zm41 0h40v40h-40zm41 0h40v40h-40zm41 0h40v40h-40zm41 0h40v40h-40zm41 0h40v40h-40zm41 0h40v40h-40zm41 0h40v40h-40zm41 0h40v40h-40zm41 0h40v40h-40zm41 0h40v40h-40zm41 0h40v40h-40zm41 0h40v40h-40zm41 0h40v40h-40zm41 0h40v40h-40zm41 0h40v40h-40zm41 0h40v40h-40zm41 0h40v40h-40zm41 0h40v40h-40zm41 0h40v40h-40zm41 0h40v40h-40zm41 0h40v40h-40zm41 0h40v40h-40zm41 0h40v40h-40zm41 0h40v40h-40zm41 0h40v40h-40zm41 0h40v40h-40zm41 0h40v40h-40zm41 0h40v40h-40zm41 0h40v40h-40zm41 0h40v40h-40zm41 0h40v40h-40zm41 0h40v40h-40zm41 0h40v40h-40zm41 0h40v40h-40zm41 0h40v40h-40zm41 0h40v40h-40zm41 0h40v40h-40zm41 0h40v40h-40zm41 0h40v40h-40zm41 0h40v40h-40zm41 0h40v40h-40zm41 0h40v40h-40zm-1845 41h40v40h-40zm41 0h40v40h-40zm41 0h40v40h-40zm41 0h40v40h-40zm41 0h40v40h-40zm41 0h40v40h-40zm41 0h40v40h-40zm41 0h40v40h-40zm41 0h40v40h-40zm41 0h40v40h-40zm41 0h40v40h-40zm41 0h40v40h-40zm41 0h40v40h-40zm41 0h40v40h-40zm41 0h40v40h-40zm41 0h40v40h-40zm41 0h40v40h-40zm41 0h40v40h-40zm41 0h40v40h-40zm41 0h40v40h-40zm41 0h40v40h-40zm41 0h40v40h-40zm41 0h40v40h-40zm41 0h40v40h-40zm41 0h40v40h-40zm41 0h40v40h-40zm41 0h40v40h-40zm41 0h40v40h-40zm41 0h40v40h-40zm41 0h40v40h-40zm41 0h40v40h-40zm41 0h40v40h-40zm41 0h40v40h-40z"/><path fill="#0E0E10" d="M1370.5 1189h40v40h-40z"/><path fill="#070708" d="M1411.5 1189h40v40h-40zm41 0h40v40h-40zm41 0h40v40h-40zm41 0h40v40h-40zm41 0h40v40h-40zm41 0h40v40h-40zm41 0h40v40h-40zm41 0h40v40h-40zm41 0h40v40h-40z"/><path fill="#0E0E10" d="M1780.5 1189h40v40h-40z"/><path fill="#070708" d="M1821.5 1189h40v40h-40zm41 0h40v40h-40zm-1845 41h40v40h-40zm41 0h40v40h-40zm41 0h40v40h-40z"/><path fill="#0E0E10" d="M140.5 1230h40v40h-40z"/><path fill="#070708" d="M181.5 1230h40v40h-40zm41 0h40v40h-40zm41 0h40v40h-40zm41 0h40v40h-40zm41 0h40v40h-40z"/><path fill="#0E0E10" d="M386.5 1230h40v40h-40z"/><path fill="#070708" d="M427.5 1230h40v40h-40zm41 0h40v40h-40zm41 0h40v40h-40zm41 0h40v40h-40zm41 0h40v40h-40zm41 0h40v40h-40zm41 0h40v40h-40zm41 0h40v40h-40zm41 0h40v40h-40zm41 0h40v40h-40zm41 0h40v40h-40zm41 0h40v40h-40zm41 0h40v40h-40z"/><path fill="#0E0E10" d="M960.5 1230h40v40h-40z"/><path fill="#070708" d="M1001.5 1230h40v40h-40zm41 0h40v40h-40zm41 0h40v40h-40zm41 0h40v40h-40zm41 0h40v40h-40zm41 0h40v40h-40zm41 0h40v40h-40zm41 0h40v40h-40zm41 0h40v40h-40zm41 0h40v40h-40zm41 0h40v40h-40zm41 0h40v40h-40zm41 0h40v40h-40zm41 0h40v40h-40zm41 0h40v40h-40zm41 0h40v40h-40zm41 0h40v40h-40zm41 0h40v40h-40zm41 0h40v40h-40zm41 0h40v40h-40zm41 0h40v40h-40zm41 0h40v40h-40zm-1845 41h40v40h-40zm41 0h40v40h-40zm41 0h40v40h-40zm41 0h40v40h-40zm41 0h40v40h-40zm41 0h40v40h-40zm41 0h40v40h-40zm41 0h40v40h-40zm41 0h40v40h-40zm41 0h40v40h-40zm41 0h40v40h-40zm41 0h40v40h-40zm41 0h40v40h-40zm41 0h40v40h-40zm41 0h40v40h-40zm41 0h40v40h-40zm41 0h40v40h-40zm41 0h40v40h-40zm41 0h40v40h-40zm41 0h40v40h-40zm41 0h40v40h-40zm41 0h40v40h-40zm41 0h40v40h-40zm41 0h40v40h-40zm41 0h40v40h-40zm41 0h40v40h-40zm41 0h40v40h-40zm41 0h40v40h-40z"/><path fill="#0E0E10" d="M1165.5 1271h40v40h-40z"/><path fill="#070708" d="M1206.5 1271h40v40h-40zm41 0h40v40h-40zm41 0h40v40h-40zm41 0h40v40h-40zm41 0h40v40h-40zm41 0h40v40h-40zm41 0h40v40h-40zm41 0h40v40h-40zm41 0h40v40h-40zm41 0h40v40h-40zm41 0h40v40h-40zm41 0h40v40h-40zm41 0h40v40h-40zm41 0h40v40h-40zm41 0h40v40h-40zm41 0h40v40h-40zm41 0h40v40h-40zm-1845 41h40v40h-40zm41 0h40v40h-40zm41 0h40v40h-40zm41 0h40v40h-40zm41 0h40v40h-40zm41 0h40v40h-40zm41 0h40v40h-40zm41 0h40v40h-40zm41 0h40v40h-40zm41 0h40v40h-40zm41 0h40v40h-40zm41 0h40v40h-40zm41 0h40v40h-40zm41 0h40v40h-40zm41 0h40v40h-40zm41 0h40v40h-40z"/><path fill="#0E0E10" d="M673.5 1312h40v40h-40z"/><path fill="#070708" d="M714.5 1312h40v40h-40zm41 0h40v40h-40zm41 0h40v40h-40zm41 0h40v40h-40zm41 0h40v40h-40zm41 0h40v40h-40zm41 0h40v40h-40zm41 0h40v40h-40zm41 0h40v40h-40zm41 0h40v40h-40zm41 0h40v40h-40zm41 0h40v40h-40zm41 0h40v40h-40zm41 0h40v40h-40zm41 0h40v40h-40zm41 0h40v40h-40zm41 0h40v40h-40zm41 0h40v40h-40zm41 0h40v40h-40zm41 0h40v40h-40zm41 0h40v40h-40zm41 0h40v40h-40zm41 0h40v40h-40zm41 0h40v40h-40z"/><path fill="#0E0E10" d="M1698.5 1312h40v40h-40z"/><path fill="#070708" d="M1739.5 1312h40v40h-40zm41 0h40v40h-40zm41 0h40v40h-40zm41 0h40v40h-40zm-1845 41h40v40h-40zm41 0h40v40h-40zm41 0h40v40h-40zm41 0h40v40h-40zm41 0h40v40h-40zm41 0h40v40h-40zm41 0h40v40h-40zm41 0h40v40h-40zm41 0h40v40h-40zm41 0h40v40h-40zm41 0h40v40h-40zm41 0h40v40h-40zm41 0h40v40h-40zm41 0h40v40h-40zm41 0h40v40h-40zm41 0h40v40h-40zm41 0h40v40h-40zm41 0h40v40h-40zm41 0h40v40h-40zm41 0h40v40h-40zm41 0h40v40h-40zm41 0h40v40h-40zm41 0h40v40h-40zm41 0h40v40h-40zm41 0h40v40h-40zm41 0h40v40h-40zm41 0h40v40h-40zm41 0h40v40h-40zm41 0h40v40h-40zm41 0h40v40h-40zm41 0h40v40h-40zm41 0h40v40h-40zm41 0h40v40h-40zm41 0h40v40h-40zm41 0h40v40h-40zm41 0h40v40h-40zm41 0h40v40h-40zm41 0h40v40h-40zm41 0h40v40h-40zm41 0h40v40h-40zm41 0h40v40h-40zm41 0h40v40h-40zm41 0h40v40h-40zm41 0h40v40h-40zm41 0h40v40h-40zm41 0h40v40h-40z"/></svg>