<svg xmlns="http://www.w3.org/2000/svg" width="150" height="194" fill="none"><g opacity=".6" style="mix-blend-mode:plus-lighter"><g filter="url(#a)" opacity=".5"><g filter="url(#b)" opacity=".8"><path fill="url(#c)" d="m259.424-97.12 2.274 3.771-90.089 85.705-62.008 57.245 59.734-61.015 90.089-85.705Z"/></g><g filter="url(#d)" opacity=".8"><path fill="url(#e)" d="m253.707-113.908 2.274 3.77-90.089 85.705-62.008 57.245 59.734-61.015 90.089-85.705Z"/></g><g filter="url(#f)" opacity=".8" style="mix-blend-mode:soft-light"><path fill="url(#g)" d="m280.605-103.719 2.275 3.77-90.09 85.706-62.008 57.245 59.734-61.015 90.089-85.706Z"/></g><g filter="url(#h)" opacity=".2" style="mix-blend-mode:plus-lighter"><path fill="url(#i)" d="m249.119-97.246 2.274 3.77-90.089 85.705-62.008 57.245L159.03-11.54l90.089-85.705Z"/></g><g filter="url(#j)" opacity=".8"><path fill="url(#k)" d="m255.667-94.404 1.973 4.114L147.958 17.353l-75.26 72.08 73.286-76.194L255.667-94.404Z"/></g><g filter="url(#l)" opacity=".8"><path fill="url(#m)" d="m251.688-113.166 1.973 4.114L143.978-1.409l-75.26 72.08 73.287-76.194 109.683-107.643Z"/></g><g filter="url(#n)" opacity=".8" style="mix-blend-mode:soft-light"><path fill="url(#o)" d="m279.638-104.111 1.973 4.114L171.928 7.646l-75.26 72.08 73.287-76.194 109.683-107.643Z"/></g><g filter="url(#p)" opacity=".2" style="mix-blend-mode:plus-lighter"><path fill="url(#q)" d="m244.452-93.525 1.973 4.114L136.743 18.232l-75.26 72.08 73.287-76.194L244.452-93.525Z"/></g><g filter="url(#r)" opacity=".8"><path fill="url(#s)" d="m260.997-92.242 1.976 4.088-108.03 103.807L80.807 85.13l72.16-73.564 108.03-103.808Z"/></g><g filter="url(#t)" opacity=".8"><path fill="url(#u)" d="m256.956-110.785 1.976 4.088L150.902-2.889 76.766 66.587l72.16-73.564 108.03-103.808Z"/></g><g filter="url(#v)" opacity=".8" style="mix-blend-mode:soft-light"><path fill="url(#w)" d="m284.681-101.328 1.976 4.088L178.626 6.568 104.49 76.044 176.65 2.48l108.031-103.808Z"/></g><g filter="url(#x)" opacity=".2" style="mix-blend-mode:plus-lighter"><path fill="url(#y)" d="m249.896-91.596 1.976 4.088L143.842 16.3 69.706 85.777l72.16-73.565 108.03-103.808Z"/></g><g filter="url(#z)" opacity=".8"><path fill="url(#A)" d="m238.073-109.486 5.235 4.775-96.432 124.698-67.197 83.498 61.963-88.273 96.431-124.698Z"/></g><g filter="url(#B)" opacity=".8"><path fill="url(#C)" d="m217.676-127.879 5.235 4.776L126.479 1.595 59.281 85.093l61.963-88.274 96.432-124.698Z"/></g><g filter="url(#D)" opacity=".8" style="mix-blend-mode:soft-light"><path fill="url(#E)" d="m267.139-120.713 5.235 4.776L175.942 8.761l-67.198 83.498 61.963-88.274 96.432-124.698Z"/></g><g filter="url(#F)" opacity=".2" style="mix-blend-mode:plus-lighter"><path fill="url(#G)" d="m244.446-112.139 5.235 4.776-96.432 124.698-67.197 83.498 61.963-88.273 96.431-124.699Z"/></g><g filter="url(#H)" opacity=".2" style="mix-blend-mode:plus-lighter"><path fill="url(#I)" d="m197.242-70.54 5.235 4.777-96.432 124.698-67.197 83.498 61.962-88.274 96.432-124.698Z"/></g></g><g opacity=".5"><g filter="url(#J)" opacity=".8"><path fill="url(#K)" d="m247.09-113.148 4.264 3.542-64.226 76.051-44.984 50.739 40.72-54.281 64.226-76.051Z"/></g><g filter="url(#L)" opacity=".8"><path fill="url(#M)" d="m233.114-128.783 4.265 3.542-64.227 76.051-44.984 50.74 40.72-54.282 64.226-76.051Z"/></g><g filter="url(#N)" opacity=".8" style="mix-blend-mode:soft-light"><path fill="url(#O)" d="m268.227-118.555 4.264 3.542-64.226 76.052-44.984 50.739 40.72-54.281 64.226-76.052Z"/></g><g filter="url(#P)" opacity=".2" style="mix-blend-mode:plus-lighter"><path fill="url(#Q)" d="m235.32-113.59 4.265 3.542-64.226 76.052-44.985 50.739 40.72-54.281 64.226-76.052Z"/></g></g><g opacity=".5"><g filter="url(#R)" opacity=".8"><path fill="url(#S)" d="m249.603-113.529 3.829 3.303-58.57 71.844-41.005 47.945 37.176-51.248 58.57-71.844Z"/></g><g filter="url(#T)" opacity=".8"><path fill="url(#U)" d="m237.081-128.137 3.83 3.303-58.57 71.845-41.005 47.945 37.175-51.248 58.57-71.845Z"/></g><g filter="url(#V)" opacity=".8" style="mix-blend-mode:soft-light"><path fill="url(#W)" d="m268.74-118.738 3.83 3.303L214-43.591 172.995 4.354l37.175-51.248 58.57-71.844Z"/></g><g filter="url(#X)" opacity=".2" style="mix-blend-mode:plus-lighter"><path fill="url(#Y)" d="m238.97-113.875 3.829 3.303-58.57 71.845-41.005 47.944L180.4-42.03l58.57-71.845Z"/></g></g><g filter="url(#Z)" opacity=".8"><path fill="url(#aa)" d="m252.854-113.73 3.244 3.051-51.494 68.272L168.59 3.18l32.77-48.638 51.494-68.271Z"/></g><g filter="url(#ab)" opacity=".8"><path fill="url(#ac)" d="m242.305-127.285 3.244 3.052-51.493 68.271-36.015 45.586 32.77-48.638 51.494-68.271Z"/></g><path fill="url(#ad)" d="m269.399-118.877 3.245 3.052-51.494 68.272-36.014 45.586 32.77-48.638 51.493-68.272Z" opacity=".8" style="mix-blend-mode:soft-light"/><g filter="url(#ae)" opacity=".2" style="mix-blend-mode:plus-lighter"><path fill="url(#af)" d="m243.71-113.912 3.244 3.052-51.493 68.271-36.015 45.586 32.771-48.638 51.493-68.271Z"/></g><g opacity=".5"><g filter="url(#ag)" opacity=".8"><path fill="url(#ah)" d="m242.467-113.432 5.104 3.969-74.876 83.112-52.483 55.42 47.379-59.39 74.876-83.111Z"/></g><g filter="url(#ai)" opacity=".8"><path fill="url(#aj)" d="m234.43-119.471 5.104 3.969-74.876 83.111-52.483 55.42 47.378-59.388 74.877-83.112Z"/></g><g filter="url(#ak)" opacity=".8"><path fill="url(#al)" d="m222.592-128.74 5.104 3.968L152.82-41.66l-52.483 55.42 47.379-59.389 74.876-83.111Z"/></g><g filter="url(#am)" opacity=".8" style="mix-blend-mode:soft-light"><path fill="url(#an)" d="m267.411-119.119 5.105 3.969-74.876 83.111-52.483 55.42 47.378-59.389 74.876-83.111Z"/></g><g filter="url(#ao)" opacity=".2" style="mix-blend-mode:plus-lighter"><path fill="url(#ap)" d="m247.918-114.82 5.105 3.968-74.877 83.112-52.482 55.42 47.378-59.389 74.876-83.111Z"/></g><g filter="url(#aq)" opacity=".2" style="mix-blend-mode:plus-lighter"><path fill="url(#ar)" d="m209.514-88.418 5.104 3.969-74.876 83.111-52.483 55.42 47.378-59.388 74.877-83.112Z"/></g></g></g><defs><linearGradient id="c" x1="260.561" x2="156.601" y1="-95.234" y2="-32.522" gradientUnits="userSpaceOnUse"><stop/><stop offset="1" stop-color="#fff"/></linearGradient><linearGradient id="e" x1="254.844" x2="150.885" y1="-112.023" y2="-49.311" gradientUnits="userSpaceOnUse"><stop/><stop offset="1" stop-color="#fff"/></linearGradient><linearGradient id="g" x1="281.743" x2="177.783" y1="-101.834" y2="-39.121" gradientUnits="userSpaceOnUse"><stop/><stop offset="1" stop-color="#fff"/></linearGradient><linearGradient id="i" x1="250.256" x2="146.297" y1="-95.361" y2="-32.648" gradientUnits="userSpaceOnUse"><stop stop-color="#fff"/><stop offset="1" stop-color="#fff"/></linearGradient><linearGradient id="k" x1="256.654" x2="125.511" y1="-92.347" y2="-29.449" gradientUnits="userSpaceOnUse"><stop/><stop offset="1" stop-color="#fff"/></linearGradient><linearGradient id="m" x1="252.674" x2="121.531" y1="-111.109" y2="-48.21" gradientUnits="userSpaceOnUse"><stop/><stop offset="1" stop-color="#fff"/></linearGradient><linearGradient id="o" x1="280.624" x2="149.482" y1="-102.054" y2="-39.156" gradientUnits="userSpaceOnUse"><stop/><stop offset="1" stop-color="#fff"/></linearGradient><linearGradient id="q" x1="245.439" x2="114.296" y1="-91.468" y2="-28.57" gradientUnits="userSpaceOnUse"><stop stop-color="#fff"/><stop offset="1" stop-color="#fff"/></linearGradient><linearGradient id="s" x1="261.985" x2="133.74" y1="-90.198" y2="-28.213" gradientUnits="userSpaceOnUse"><stop/><stop offset="1" stop-color="#fff"/></linearGradient><linearGradient id="u" x1="257.944" x2="129.699" y1="-108.741" y2="-46.756" gradientUnits="userSpaceOnUse"><stop/><stop offset="1" stop-color="#fff"/></linearGradient><linearGradient id="w" x1="285.669" x2="157.424" y1="-99.284" y2="-37.298" gradientUnits="userSpaceOnUse"><stop/><stop offset="1" stop-color="#fff"/></linearGradient><linearGradient id="y" x1="250.884" x2="122.64" y1="-89.552" y2="-27.566" gradientUnits="userSpaceOnUse"><stop stop-color="#fff"/><stop offset="1" stop-color="#fff"/></linearGradient><linearGradient id="A" x1="240.691" x2="134.803" y1="-107.099" y2="8.974" gradientUnits="userSpaceOnUse"><stop stop-color="#fff" stop-opacity="0"/><stop offset=".557" stop-color="#fff" stop-opacity="0"/><stop offset="1" stop-color="#fff" stop-opacity=".3"/></linearGradient><linearGradient id="C" x1="220.293" x2="114.406" y1="-125.491" y2="-9.419" gradientUnits="userSpaceOnUse"><stop/><stop offset="1" stop-color="#fff"/></linearGradient><linearGradient id="E" x1="269.756" x2="163.869" y1="-118.325" y2="-2.253" gradientUnits="userSpaceOnUse"><stop stop-color="#fff" stop-opacity="0"/><stop offset=".557" stop-color="#fff" stop-opacity="0"/><stop offset="1" stop-color="#fff" stop-opacity=".3"/></linearGradient><linearGradient id="G" x1="247.064" x2="141.176" y1="-109.751" y2="6.321" gradientUnits="userSpaceOnUse"><stop stop-color="#fff"/><stop offset="1" stop-color="#fff"/></linearGradient><linearGradient id="I" x1="199.86" x2="93.972" y1="-68.151" y2="47.921" gradientUnits="userSpaceOnUse"><stop stop-color="#fff"/><stop offset="1" stop-color="#fff"/></linearGradient><linearGradient id="K" x1="249.222" x2="185.619" y1="-111.377" y2="-34.808" gradientUnits="userSpaceOnUse"><stop/><stop offset="1" stop-color="#fff"/></linearGradient><linearGradient id="M" x1="235.246" x2="171.643" y1="-127.012" y2="-50.443" gradientUnits="userSpaceOnUse"><stop/><stop offset="1" stop-color="#fff"/></linearGradient><linearGradient id="O" x1="270.359" x2="206.756" y1="-116.784" y2="-40.215" gradientUnits="userSpaceOnUse"><stop/><stop offset="1" stop-color="#fff"/></linearGradient><linearGradient id="Q" x1="237.452" x2="173.849" y1="-111.819" y2="-35.25" gradientUnits="userSpaceOnUse"><stop stop-color="#fff"/><stop offset="1" stop-color="#fff"/></linearGradient><linearGradient id="S" x1="251.517" x2="191.001" y1="-111.878" y2="-41.712" gradientUnits="userSpaceOnUse"><stop/><stop offset="1" stop-color="#fff"/></linearGradient><linearGradient id="U" x1="238.996" x2="178.479" y1="-126.485" y2="-56.32" gradientUnits="userSpaceOnUse"><stop/><stop offset="1" stop-color="#fff"/></linearGradient><linearGradient id="W" x1="270.655" x2="210.138" y1="-117.087" y2="-46.921" gradientUnits="userSpaceOnUse"><stop/><stop offset="1" stop-color="#fff"/></linearGradient><linearGradient id="Y" x1="240.885" x2="180.368" y1="-112.223" y2="-42.058" gradientUnits="userSpaceOnUse"><stop stop-color="#fff"/><stop offset="1" stop-color="#fff"/></linearGradient><linearGradient id="aa" x1="254.476" x2="196.228" y1="-112.204" y2="-50.286" gradientUnits="userSpaceOnUse"><stop/><stop offset="1" stop-color="#fff"/></linearGradient><linearGradient id="ac" x1="243.927" x2="185.68" y1="-125.759" y2="-63.841" gradientUnits="userSpaceOnUse"><stop/><stop offset="1" stop-color="#fff"/></linearGradient><linearGradient id="ad" x1="271.022" x2="212.774" y1="-117.351" y2="-55.433" gradientUnits="userSpaceOnUse"><stop/><stop offset="1" stop-color="#fff"/></linearGradient><linearGradient id="af" x1="245.332" x2="187.085" y1="-112.386" y2="-50.468" gradientUnits="userSpaceOnUse"><stop stop-color="#fff"/><stop offset="1" stop-color="#fff"/></linearGradient><linearGradient id="ah" x1="245.019" x2="176.538" y1="-111.447" y2="-23.364" gradientUnits="userSpaceOnUse"><stop stop-color="#fff" stop-opacity="0"/><stop offset=".557" stop-color="#fff" stop-opacity="0"/><stop offset="1" stop-color="#fff" stop-opacity=".3"/></linearGradient><linearGradient id="aj" x1="236.982" x2="168.501" y1="-117.486" y2="-29.403" gradientUnits="userSpaceOnUse"><stop stop-color="#fff" stop-opacity="0"/><stop offset=".557" stop-color="#fff" stop-opacity="0"/><stop offset="1" stop-color="#fff" stop-opacity=".3"/></linearGradient><linearGradient id="al" x1="225.144" x2="156.663" y1="-126.756" y2="-38.672" gradientUnits="userSpaceOnUse"><stop/><stop offset="1" stop-color="#fff"/></linearGradient><linearGradient id="an" x1="269.963" x2="201.483" y1="-117.135" y2="-29.051" gradientUnits="userSpaceOnUse"><stop stop-color="#fff" stop-opacity="0"/><stop offset=".557" stop-color="#fff" stop-opacity="0"/><stop offset="1" stop-color="#fff" stop-opacity=".3"/></linearGradient><linearGradient id="ap" x1="250.47" x2="181.99" y1="-112.836" y2="-24.752" gradientUnits="userSpaceOnUse"><stop stop-color="#fff"/><stop offset="1" stop-color="#fff"/></linearGradient><linearGradient id="ar" x1="212.066" x2="143.585" y1="-86.434" y2="1.65" gradientUnits="userSpaceOnUse"><stop stop-color="#fff"/><stop offset="1" stop-color="#fff"/></linearGradient><filter id="a" width="324.267" height="346.769" x=".618" y="-166.108" color-interpolation-filters="sRGB" filterUnits="userSpaceOnUse"><feFlood flood-opacity="0" result="BackgroundImageFix"/><feBlend in="SourceGraphic" in2="BackgroundImageFix" result="shape"/><feGaussianBlur result="effect1_foregroundBlur_1045_311" stdDeviation="19.115"/></filter><filter id="b" width="217.937" height="212.56" x="76.681" y="-130.039" color-interpolation-filters="sRGB" filterUnits="userSpaceOnUse"><feFlood flood-opacity="0" result="BackgroundImageFix"/><feBlend in="SourceGraphic" in2="BackgroundImageFix" result="shape"/><feGaussianBlur result="effect1_foregroundBlur_1045_311" stdDeviation="16.46"/></filter><filter id="d" width="217.937" height="212.56" x="70.964" y="-146.828" color-interpolation-filters="sRGB" filterUnits="userSpaceOnUse"><feFlood flood-opacity="0" result="BackgroundImageFix"/><feBlend in="SourceGraphic" in2="BackgroundImageFix" result="shape"/><feGaussianBlur result="effect1_foregroundBlur_1045_311" stdDeviation="16.46"/></filter><filter id="f" width="217.937" height="212.56" x="97.863" y="-136.638" color-interpolation-filters="sRGB" filterUnits="userSpaceOnUse"><feFlood flood-opacity="0" result="BackgroundImageFix"/><feBlend in="SourceGraphic" in2="BackgroundImageFix" result="shape"/><feGaussianBlur result="effect1_foregroundBlur_1045_311" stdDeviation="16.46"/></filter><filter id="h" width="189.554" height="184.177" x="80.568" y="-115.974" color-interpolation-filters="sRGB" filterUnits="userSpaceOnUse"><feFlood flood-opacity="0" result="BackgroundImageFix"/><feBlend in="SourceGraphic" in2="BackgroundImageFix" result="shape"/><feGaussianBlur result="effect1_foregroundBlur_1045_311" stdDeviation="9.364"/></filter><filter id="j" width="250.782" height="249.677" x="39.779" y="-127.324" color-interpolation-filters="sRGB" filterUnits="userSpaceOnUse"><feFlood flood-opacity="0" result="BackgroundImageFix"/><feBlend in="SourceGraphic" in2="BackgroundImageFix" result="shape"/><feGaussianBlur result="effect1_foregroundBlur_1045_311" stdDeviation="16.46"/></filter><filter id="l" width="250.782" height="249.677" x="35.799" y="-146.086" color-interpolation-filters="sRGB" filterUnits="userSpaceOnUse"><feFlood flood-opacity="0" result="BackgroundImageFix"/><feBlend in="SourceGraphic" in2="BackgroundImageFix" result="shape"/><feGaussianBlur result="effect1_foregroundBlur_1045_311" stdDeviation="16.46"/></filter><filter id="n" width="250.782" height="249.677" x="63.749" y="-137.031" color-interpolation-filters="sRGB" filterUnits="userSpaceOnUse"><feFlood flood-opacity="0" result="BackgroundImageFix"/><feBlend in="SourceGraphic" in2="BackgroundImageFix" result="shape"/><feGaussianBlur result="effect1_foregroundBlur_1045_311" stdDeviation="16.46"/></filter><filter id="p" width="222.398" height="221.294" x="42.755" y="-112.253" color-interpolation-filters="sRGB" filterUnits="userSpaceOnUse"><feFlood flood-opacity="0" result="BackgroundImageFix"/><feBlend in="SourceGraphic" in2="BackgroundImageFix" result="shape"/><feGaussianBlur result="effect1_foregroundBlur_1045_311" stdDeviation="9.364"/></filter><filter id="r" width="248.005" height="243.212" x="47.887" y="-125.162" color-interpolation-filters="sRGB" filterUnits="userSpaceOnUse"><feFlood flood-opacity="0" result="BackgroundImageFix"/><feBlend in="SourceGraphic" in2="BackgroundImageFix" result="shape"/><feGaussianBlur result="effect1_foregroundBlur_1045_311" stdDeviation="16.46"/></filter><filter id="t" width="248.005" height="243.212" x="43.846" y="-143.705" color-interpolation-filters="sRGB" filterUnits="userSpaceOnUse"><feFlood flood-opacity="0" result="BackgroundImageFix"/><feBlend in="SourceGraphic" in2="BackgroundImageFix" result="shape"/><feGaussianBlur result="effect1_foregroundBlur_1045_311" stdDeviation="16.46"/></filter><filter id="v" width="248.005" height="243.212" x="71.571" y="-134.248" color-interpolation-filters="sRGB" filterUnits="userSpaceOnUse"><feFlood flood-opacity="0" result="BackgroundImageFix"/><feBlend in="SourceGraphic" in2="BackgroundImageFix" result="shape"/><feGaussianBlur result="effect1_foregroundBlur_1045_311" stdDeviation="16.46"/></filter><filter id="x" width="219.622" height="214.829" x="50.978" y="-110.324" color-interpolation-filters="sRGB" filterUnits="userSpaceOnUse"><feFlood flood-opacity="0" result="BackgroundImageFix"/><feBlend in="SourceGraphic" in2="BackgroundImageFix" result="shape"/><feGaussianBlur result="effect1_foregroundBlur_1045_311" stdDeviation="9.364"/></filter><filter id="z" width="229.468" height="278.81" x="46.759" y="-142.406" color-interpolation-filters="sRGB" filterUnits="userSpaceOnUse"><feFlood flood-opacity="0" result="BackgroundImageFix"/><feBlend in="SourceGraphic" in2="BackgroundImageFix" result="shape"/><feGaussianBlur result="effect1_foregroundBlur_1045_311" stdDeviation="16.46"/></filter><filter id="B" width="229.468" height="278.81" x="26.362" y="-160.799" color-interpolation-filters="sRGB" filterUnits="userSpaceOnUse"><feFlood flood-opacity="0" result="BackgroundImageFix"/><feBlend in="SourceGraphic" in2="BackgroundImageFix" result="shape"/><feGaussianBlur result="effect1_foregroundBlur_1045_311" stdDeviation="16.46"/></filter><filter id="D" width="229.468" height="278.81" x="75.825" y="-153.633" color-interpolation-filters="sRGB" filterUnits="userSpaceOnUse"><feFlood flood-opacity="0" result="BackgroundImageFix"/><feBlend in="SourceGraphic" in2="BackgroundImageFix" result="shape"/><feGaussianBlur result="effect1_foregroundBlur_1045_311" stdDeviation="16.46"/></filter><filter id="F" width="201.085" height="250.427" x="67.324" y="-130.867" color-interpolation-filters="sRGB" filterUnits="userSpaceOnUse"><feFlood flood-opacity="0" result="BackgroundImageFix"/><feBlend in="SourceGraphic" in2="BackgroundImageFix" result="shape"/><feGaussianBlur result="effect1_foregroundBlur_1045_311" stdDeviation="9.364"/></filter><filter id="H" width="201.085" height="250.427" x="20.12" y="-89.267" color-interpolation-filters="sRGB" filterUnits="userSpaceOnUse"><feFlood flood-opacity="0" result="BackgroundImageFix"/><feBlend in="SourceGraphic" in2="BackgroundImageFix" result="shape"/><feGaussianBlur result="effect1_foregroundBlur_1045_311" stdDeviation="9.364"/></filter><filter id="J" width="175.05" height="196.171" x="109.224" y="-146.068" color-interpolation-filters="sRGB" filterUnits="userSpaceOnUse"><feFlood flood-opacity="0" result="BackgroundImageFix"/><feBlend in="SourceGraphic" in2="BackgroundImageFix" result="shape"/><feGaussianBlur result="effect1_foregroundBlur_1045_311" stdDeviation="16.46"/></filter><filter id="L" width="175.05" height="196.171" x="95.248" y="-161.703" color-interpolation-filters="sRGB" filterUnits="userSpaceOnUse"><feFlood flood-opacity="0" result="BackgroundImageFix"/><feBlend in="SourceGraphic" in2="BackgroundImageFix" result="shape"/><feGaussianBlur result="effect1_foregroundBlur_1045_311" stdDeviation="16.46"/></filter><filter id="N" width="175.05" height="196.171" x="130.361" y="-151.474" color-interpolation-filters="sRGB" filterUnits="userSpaceOnUse"><feFlood flood-opacity="0" result="BackgroundImageFix"/><feBlend in="SourceGraphic" in2="BackgroundImageFix" result="shape"/><feGaussianBlur result="effect1_foregroundBlur_1045_311" stdDeviation="16.46"/></filter><filter id="P" width="146.667" height="167.788" x="111.646" y="-132.318" color-interpolation-filters="sRGB" filterUnits="userSpaceOnUse"><feFlood flood-opacity="0" result="BackgroundImageFix"/><feBlend in="SourceGraphic" in2="BackgroundImageFix" result="shape"/><feGaussianBlur result="effect1_foregroundBlur_1045_311" stdDeviation="9.364"/></filter><filter id="R" width="165.415" height="188.931" x="120.938" y="-146.449" color-interpolation-filters="sRGB" filterUnits="userSpaceOnUse"><feFlood flood-opacity="0" result="BackgroundImageFix"/><feBlend in="SourceGraphic" in2="BackgroundImageFix" result="shape"/><feGaussianBlur result="effect1_foregroundBlur_1045_311" stdDeviation="16.46"/></filter><filter id="T" width="165.415" height="188.931" x="108.416" y="-161.056" color-interpolation-filters="sRGB" filterUnits="userSpaceOnUse"><feFlood flood-opacity="0" result="BackgroundImageFix"/><feBlend in="SourceGraphic" in2="BackgroundImageFix" result="shape"/><feGaussianBlur result="effect1_foregroundBlur_1045_311" stdDeviation="16.46"/></filter><filter id="V" width="165.415" height="188.931" x="140.075" y="-151.658" color-interpolation-filters="sRGB" filterUnits="userSpaceOnUse"><feFlood flood-opacity="0" result="BackgroundImageFix"/><feBlend in="SourceGraphic" in2="BackgroundImageFix" result="shape"/><feGaussianBlur result="effect1_foregroundBlur_1045_311" stdDeviation="16.46"/></filter><filter id="X" width="137.031" height="160.548" x="124.497" y="-132.603" color-interpolation-filters="sRGB" filterUnits="userSpaceOnUse"><feFlood flood-opacity="0" result="BackgroundImageFix"/><feBlend in="SourceGraphic" in2="BackgroundImageFix" result="shape"/><feGaussianBlur result="effect1_foregroundBlur_1045_311" stdDeviation="9.364"/></filter><filter id="Z" width="153.347" height="182.749" x="135.67" y="-146.65" color-interpolation-filters="sRGB" filterUnits="userSpaceOnUse"><feFlood flood-opacity="0" result="BackgroundImageFix"/><feBlend in="SourceGraphic" in2="BackgroundImageFix" result="shape"/><feGaussianBlur result="effect1_foregroundBlur_1045_311" stdDeviation="16.46"/></filter><filter id="ab" width="153.347" height="182.749" x="125.121" y="-160.205" color-interpolation-filters="sRGB" filterUnits="userSpaceOnUse"><feFlood flood-opacity="0" result="BackgroundImageFix"/><feBlend in="SourceGraphic" in2="BackgroundImageFix" result="shape"/><feGaussianBlur result="effect1_foregroundBlur_1045_311" stdDeviation="16.46"/></filter><filter id="ae" width="124.964" height="154.366" x="140.718" y="-132.64" color-interpolation-filters="sRGB" filterUnits="userSpaceOnUse"><feFlood flood-opacity="0" result="BackgroundImageFix"/><feBlend in="SourceGraphic" in2="BackgroundImageFix" result="shape"/><feGaussianBlur result="effect1_foregroundBlur_1045_311" stdDeviation="9.364"/></filter><filter id="ag" width="193.198" height="208.339" x="87.293" y="-146.351" color-interpolation-filters="sRGB" filterUnits="userSpaceOnUse"><feFlood flood-opacity="0" result="BackgroundImageFix"/><feBlend in="SourceGraphic" in2="BackgroundImageFix" result="shape"/><feGaussianBlur result="effect1_foregroundBlur_1045_311" stdDeviation="16.46"/></filter><filter id="ai" width="193.198" height="208.339" x="79.256" y="-152.39" color-interpolation-filters="sRGB" filterUnits="userSpaceOnUse"><feFlood flood-opacity="0" result="BackgroundImageFix"/><feBlend in="SourceGraphic" in2="BackgroundImageFix" result="shape"/><feGaussianBlur result="effect1_foregroundBlur_1045_311" stdDeviation="16.46"/></filter><filter id="ak" width="193.198" height="208.339" x="67.418" y="-161.66" color-interpolation-filters="sRGB" filterUnits="userSpaceOnUse"><feFlood flood-opacity="0" result="BackgroundImageFix"/><feBlend in="SourceGraphic" in2="BackgroundImageFix" result="shape"/><feGaussianBlur result="effect1_foregroundBlur_1045_311" stdDeviation="16.46"/></filter><filter id="am" width="193.198" height="208.339" x="112.238" y="-152.039" color-interpolation-filters="sRGB" filterUnits="userSpaceOnUse"><feFlood flood-opacity="0" result="BackgroundImageFix"/><feBlend in="SourceGraphic" in2="BackgroundImageFix" result="shape"/><feGaussianBlur result="effect1_foregroundBlur_1045_311" stdDeviation="16.46"/></filter><filter id="ao" width="164.814" height="179.956" x="106.936" y="-133.548" color-interpolation-filters="sRGB" filterUnits="userSpaceOnUse"><feFlood flood-opacity="0" result="BackgroundImageFix"/><feBlend in="SourceGraphic" in2="BackgroundImageFix" result="shape"/><feGaussianBlur result="effect1_foregroundBlur_1045_311" stdDeviation="9.364"/></filter><filter id="aq" width="164.814" height="179.956" x="68.532" y="-107.146" color-interpolation-filters="sRGB" filterUnits="userSpaceOnUse"><feFlood flood-opacity="0" result="BackgroundImageFix"/><feBlend in="SourceGraphic" in2="BackgroundImageFix" result="shape"/><feGaussianBlur result="effect1_foregroundBlur_1045_311" stdDeviation="9.364"/></filter></defs></svg>