<svg xmlns="http://www.w3.org/2000/svg" width="1920" height="1393" fill="none"><path fill="#070708" d="M17.5 0h40v40h-40zm41 0h40v40h-40zm41 0h40v40h-40zm41 0h40v40h-40zm41 0h40v40h-40zm41 0h40v40h-40zm41 0h40v40h-40zm41 0h40v40h-40zm41 0h40v40h-40zm41 0h40v40h-40zm41 0h40v40h-40zm41 0h40v40h-40zm41 0h40v40h-40zm41 0h40v40h-40zm41 0h40v40h-40zm41 0h40v40h-40zm41 0h40v40h-40zm41 0h40v40h-40zm41 0h40v40h-40zm41 0h40v40h-40zm41 0h40v40h-40zm41 0h40v40h-40zm41 0h40v40h-40zm41 0h40v40h-40zm41 0h40v40h-40zm41 0h40v40h-40zm41 0h40v40h-40zm41 0h40v40h-40zm41 0h40v40h-40zm41 0h40v40h-40zm41 0h40v40h-40zm41 0h40v40h-40zm41 0h40v40h-40zm41 0h40v40h-40zm41 0h40v40h-40zm41 0h40v40h-40zm41 0h40v40h-40zm41 0h40v40h-40zm41 0h40v40h-40zm41 0h40v40h-40zm41 0h40v40h-40zm41 0h40v40h-40zm41 0h40v40h-40zm41 0h40v40h-40zm41 0h40v40h-40zm41 0h40v40h-40zM17.5 41h40v40h-40zm41 0h40v40h-40zm41 0h40v40h-40zm41 0h40v40h-40zm41 0h40v40h-40zm41 0h40v40h-40zm41 0h40v40h-40zm41 0h40v40h-40zm41 0h40v40h-40zm41 0h40v40h-40zm41 0h40v40h-40zm41 0h40v40h-40zm41 0h40v40h-40zm41 0h40v40h-40zm41 0h40v40h-40zm41 0h40v40h-40zm41 0h40v40h-40zm41 0h40v40h-40zm41 0h40v40h-40zm41 0h40v40h-40zm41 0h40v40h-40zm41 0h40v40h-40zm41 0h40v40h-40zm41 0h40v40h-40zm41 0h40v40h-40zm41 0h40v40h-40zm41 0h40v40h-40zm41 0h40v40h-40zm41 0h40v40h-40zm41 0h40v40h-40zm41 0h40v40h-40z"/><path fill="#0E0E10" d="M1288.5 41h40v40h-40z"/><path fill="#070708" d="M1329.5 41h40v40h-40zm41 0h40v40h-40zm41 0h40v40h-40zm41 0h40v40h-40zm41 0h40v40h-40zm41 0h40v40h-40zm41 0h40v40h-40zm41 0h40v40h-40zm41 0h40v40h-40zm41 0h40v40h-40zm41 0h40v40h-40zm41 0h40v40h-40zm41 0h40v40h-40zm41 0h40v40h-40zM17.5 82h40v40h-40zm41 0h40v40h-40zm41 0h40v40h-40zm41 0h40v40h-40zm41 0h40v40h-40zm41 0h40v40h-40zm41 0h40v40h-40zm41 0h40v40h-40z"/><path fill="#0E0E10" d="M345.5 82h40v40h-40z"/><path fill="#070708" d="M386.5 82h40v40h-40zm41 0h40v40h-40zm41 0h40v40h-40zm41 0h40v40h-40zm41 0h40v40h-40zm41 0h40v40h-40zm41 0h40v40h-40zm41 0h40v40h-40zm41 0h40v40h-40zm41 0h40v40h-40zm41 0h40v40h-40zm41 0h40v40h-40zm41 0h40v40h-40zm41 0h40v40h-40zm41 0h40v40h-40zm41 0h40v40h-40zm41 0h40v40h-40zm41 0h40v40h-40zm41 0h40v40h-40zm41 0h40v40h-40zm41 0h40v40h-40zm41 0h40v40h-40zm41 0h40v40h-40zm41 0h40v40h-40zm41 0h40v40h-40zm41 0h40v40h-40zm41 0h40v40h-40zm41 0h40v40h-40zm41 0h40v40h-40zm41 0h40v40h-40zm41 0h40v40h-40zm41 0h40v40h-40zm41 0h40v40h-40zm41 0h40v40h-40zm41 0h40v40h-40zm41 0h40v40h-40zm41 0h40v40h-40zm-1845 41h40v40h-40z"/><path fill="#0E0E10" d="M58.5 123h40v40h-40z"/><path fill="#070708" d="M99.5 123h40v40h-40zm41 0h40v40h-40zm41 0h40v40h-40zm41 0h40v40h-40zm41 0h40v40h-40zm41 0h40v40h-40zm41 0h40v40h-40zm41 0h40v40h-40zm41 0h40v40h-40zm41 0h40v40h-40zm41 0h40v40h-40zm41 0h40v40h-40zm41 0h40v40h-40zm41 0h40v40h-40zm41 0h40v40h-40zm41 0h40v40h-40zm41 0h40v40h-40zm41 0h40v40h-40z"/><path fill="#0E0E10" d="M837.5 123h40v40h-40z"/><path fill="#070708" d="M878.5 123h40v40h-40zm41 0h40v40h-40zm41 0h40v40h-40zm41 0h40v40h-40zm41 0h40v40h-40zm41 0h40v40h-40zm41 0h40v40h-40zm41 0h40v40h-40zm41 0h40v40h-40zm41 0h40v40h-40zm41 0h40v40h-40zm41 0h40v40h-40zm41 0h40v40h-40zm41 0h40v40h-40zm41 0h40v40h-40z"/><path fill="#0E0E10" d="M1493.5 123h40v40h-40z"/><path fill="#070708" d="M1534.5 123h40v40h-40zm41 0h40v40h-40zm41 0h40v40h-40zm41 0h40v40h-40zm41 0h40v40h-40zm41 0h40v40h-40zm41 0h40v40h-40zm41 0h40v40h-40zm41 0h40v40h-40zm-1845 41h40v40h-40zm41 0h40v40h-40zm41 0h40v40h-40zm41 0h40v40h-40zm41 0h40v40h-40zm41 0h40v40h-40zm41 0h40v40h-40zm41 0h40v40h-40zm41 0h40v40h-40zm41 0h40v40h-40zm41 0h40v40h-40zm41 0h40v40h-40z"/><path fill="#0E0E10" d="M509.5 164h40v40h-40z"/><path fill="#070708" d="M550.5 164h40v40h-40zm41 0h40v40h-40zm41 0h40v40h-40zm41 0h40v40h-40zm41 0h40v40h-40zm41 0h40v40h-40zm41 0h40v40h-40zm41 0h40v40h-40zm41 0h40v40h-40zm41 0h40v40h-40zm41 0h40v40h-40zm41 0h40v40h-40z"/><path fill="#0E0E10" d="M1042.5 164h40v40h-40z"/><path fill="#070708" d="M1083.5 164h40v40h-40zm41 0h40v40h-40zm41 0h40v40h-40zm41 0h40v40h-40zm41 0h40v40h-40zm41 0h40v40h-40zm41 0h40v40h-40zm41 0h40v40h-40zm41 0h40v40h-40zm41 0h40v40h-40zm41 0h40v40h-40zm41 0h40v40h-40zm41 0h40v40h-40zm41 0h40v40h-40zm41 0h40v40h-40zm41 0h40v40h-40zm41 0h40v40h-40zm41 0h40v40h-40zm41 0h40v40h-40zm41 0h40v40h-40zm-1845 41h40v40h-40zm41 0h40v40h-40zm41 0h40v40h-40zm41 0h40v40h-40zm41 0h40v40h-40zm41 0h40v40h-40zm41 0h40v40h-40zm41 0h40v40h-40zm41 0h40v40h-40zm41 0h40v40h-40zm41 0h40v40h-40zm41 0h40v40h-40zm41 0h40v40h-40zm41 0h40v40h-40zm41 0h40v40h-40zm41 0h40v40h-40zm41 0h40v40h-40zm41 0h40v40h-40zm41 0h40v40h-40zm41 0h40v40h-40zm41 0h40v40h-40zm41 0h40v40h-40zm41 0h40v40h-40zm41 0h40v40h-40zm41 0h40v40h-40zm41 0h40v40h-40zm41 0h40v40h-40zm41 0h40v40h-40zm41 0h40v40h-40zm41 0h40v40h-40zm41 0h40v40h-40zm41 0h40v40h-40zm41 0h40v40h-40zm41 0h40v40h-40zm41 0h40v40h-40zm41 0h40v40h-40zm41 0h40v40h-40zm41 0h40v40h-40zm41 0h40v40h-40zm41 0h40v40h-40zm41 0h40v40h-40zm41 0h40v40h-40zm41 0h40v40h-40zm41 0h40v40h-40zm41 0h40v40h-40zm41 0h40v40h-40zm-1845 41h40v40h-40zm41 0h40v40h-40zm41 0h40v40h-40zm41 0h40v40h-40zm41 0h40v40h-40zm41 0h40v40h-40zm41 0h40v40h-40z"/><path fill="#0E0E10" d="M304.5 246h40v40h-40z"/><path fill="#070708" d="M345.5 246h40v40h-40zm41 0h40v40h-40zm41 0h40v40h-40zm41 0h40v40h-40zm41 0h40v40h-40zm41 0h40v40h-40zm41 0h40v40h-40zm41 0h40v40h-40zm41 0h40v40h-40zm41 0h40v40h-40zm41 0h40v40h-40zm41 0h40v40h-40zm41 0h40v40h-40zm41 0h40v40h-40zm41 0h40v40h-40zm41 0h40v40h-40zm41 0h40v40h-40zm41 0h40v40h-40zm41 0h40v40h-40zm41 0h40v40h-40zm41 0h40v40h-40zm41 0h40v40h-40zm41 0h40v40h-40zm41 0h40v40h-40zm41 0h40v40h-40zm41 0h40v40h-40zm41 0h40v40h-40zm41 0h40v40h-40zm41 0h40v40h-40zm41 0h40v40h-40zm41 0h40v40h-40zm41 0h40v40h-40zm41 0h40v40h-40zm41 0h40v40h-40zm41 0h40v40h-40zm41 0h40v40h-40zm41 0h40v40h-40zm41 0h40v40h-40zm-1845 41h40v40h-40zm41 0h40v40h-40zm41 0h40v40h-40zm41 0h40v40h-40zm41 0h40v40h-40zm41 0h40v40h-40zm41 0h40v40h-40zm41 0h40v40h-40zm41 0h40v40h-40zm41 0h40v40h-40zm41 0h40v40h-40zm41 0h40v40h-40zm41 0h40v40h-40zm41 0h40v40h-40zm41 0h40v40h-40zm41 0h40v40h-40zm41 0h40v40h-40zm41 0h40v40h-40zm41 0h40v40h-40zm41 0h40v40h-40zm41 0h40v40h-40zm41 0h40v40h-40zm41 0h40v40h-40zm41 0h40v40h-40zm41 0h40v40h-40zm41 0h40v40h-40zm41 0h40v40h-40zm41 0h40v40h-40zm41 0h40v40h-40zm41 0h40v40h-40zm41 0h40v40h-40zm41 0h40v40h-40zm41 0h40v40h-40zm41 0h40v40h-40zm41 0h40v40h-40zm41 0h40v40h-40zm41 0h40v40h-40zm41 0h40v40h-40zm41 0h40v40h-40zm41 0h40v40h-40z"/><path fill="#0E0E10" d="M1657.5 287h40v40h-40z"/><path fill="#070708" d="M1698.5 287h40v40h-40zm41 0h40v40h-40zm41 0h40v40h-40zm41 0h40v40h-40zm41 0h40v40h-40zm-1845 41h40v40h-40zm41 0h40v40h-40zm41 0h40v40h-40zm41 0h40v40h-40zm41 0h40v40h-40zm41 0h40v40h-40zm41 0h40v40h-40zm41 0h40v40h-40zm41 0h40v40h-40zm41 0h40v40h-40zm41 0h40v40h-40zm41 0h40v40h-40zm41 0h40v40h-40zm41 0h40v40h-40zm41 0h40v40h-40zm41 0h40v40h-40z"/><path fill="#0E0E10" d="M673.5 328h40v40h-40z"/><path fill="#070708" d="M714.5 328h40v40h-40zm41 0h40v40h-40zm41 0h40v40h-40zm41 0h40v40h-40zm41 0h40v40h-40zm41 0h40v40h-40zm41 0h40v40h-40zm41 0h40v40h-40z"/><path fill="#0E0E10" d="M1042.5 328h40v40h-40z"/><path fill="#070708" d="M1083.5 328h40v40h-40zm41 0h40v40h-40zm41 0h40v40h-40zm41 0h40v40h-40zm41 0h40v40h-40zm41 0h40v40h-40zm41 0h40v40h-40zm41 0h40v40h-40zm41 0h40v40h-40zm41 0h40v40h-40zm41 0h40v40h-40zm41 0h40v40h-40zm41 0h40v40h-40zm41 0h40v40h-40zm41 0h40v40h-40zm41 0h40v40h-40zm41 0h40v40h-40zm41 0h40v40h-40zm41 0h40v40h-40zm41 0h40v40h-40zm-1845 41h40v40h-40zm41 0h40v40h-40zm41 0h40v40h-40zm41 0h40v40h-40zm41 0h40v40h-40zm41 0h40v40h-40zm41 0h40v40h-40zm41 0h40v40h-40zm41 0h40v40h-40zm41 0h40v40h-40zm41 0h40v40h-40zm41 0h40v40h-40zm41 0h40v40h-40zm41 0h40v40h-40zm41 0h40v40h-40zm41 0h40v40h-40zm41 0h40v40h-40zm41 0h40v40h-40zm41 0h40v40h-40zm41 0h40v40h-40zm41 0h40v40h-40zm41 0h40v40h-40zm41 0h40v40h-40zm41 0h40v40h-40zm41 0h40v40h-40zm41 0h40v40h-40zm41 0h40v40h-40zm41 0h40v40h-40zm41 0h40v40h-40zm41 0h40v40h-40zm41 0h40v40h-40zm41 0h40v40h-40zm41 0h40v40h-40zm41 0h40v40h-40zm41 0h40v40h-40zm41 0h40v40h-40zm41 0h40v40h-40zm41 0h40v40h-40zm41 0h40v40h-40zm41 0h40v40h-40zm41 0h40v40h-40zm41 0h40v40h-40zm41 0h40v40h-40zm41 0h40v40h-40zm41 0h40v40h-40zm41 0h40v40h-40zm-1845 41h40v40h-40zm41 0h40v40h-40zm41 0h40v40h-40zm41 0h40v40h-40zm41 0h40v40h-40zm41 0h40v40h-40zm41 0h40v40h-40zm41 0h40v40h-40zm41 0h40v40h-40z"/><path fill="#0E0E10" d="M386.5 410h40v40h-40z"/><path fill="#070708" d="M427.5 410h40v40h-40zm41 0h40v40h-40zm41 0h40v40h-40zm41 0h40v40h-40zm41 0h40v40h-40zm41 0h40v40h-40zm41 0h40v40h-40zm41 0h40v40h-40zm41 0h40v40h-40zm41 0h40v40h-40zm41 0h40v40h-40zm41 0h40v40h-40zm41 0h40v40h-40zm41 0h40v40h-40zm41 0h40v40h-40zm41 0h40v40h-40zm41 0h40v40h-40zm41 0h40v40h-40zm41 0h40v40h-40zm41 0h40v40h-40zm41 0h40v40h-40zm41 0h40v40h-40z"/><path fill="#0E0E10" d="M1329.5 410h40v40h-40z"/><path fill="#070708" d="M1370.5 410h40v40h-40zm41 0h40v40h-40zm41 0h40v40h-40zm41 0h40v40h-40zm41 0h40v40h-40zm41 0h40v40h-40zm41 0h40v40h-40zm41 0h40v40h-40zm41 0h40v40h-40zm41 0h40v40h-40zm41 0h40v40h-40zm41 0h40v40h-40zm41 0h40v40h-40zm-1845 41h40v40h-40zm41 0h40v40h-40zm41 0h40v40h-40zm41 0h40v40h-40zm41 0h40v40h-40zm41 0h40v40h-40zm41 0h40v40h-40zm41 0h40v40h-40zm41 0h40v40h-40zm41 0h40v40h-40zm41 0h40v40h-40zm41 0h40v40h-40zm41 0h40v40h-40zm41 0h40v40h-40zm41 0h40v40h-40zm41 0h40v40h-40zm41 0h40v40h-40zm41 0h40v40h-40zm41 0h40v40h-40zm41 0h40v40h-40zm41 0h40v40h-40zm41 0h40v40h-40zm41 0h40v40h-40zm41 0h40v40h-40zm41 0h40v40h-40zm41 0h40v40h-40zm41 0h40v40h-40zm41 0h40v40h-40zm41 0h40v40h-40zm41 0h40v40h-40zm41 0h40v40h-40zm41 0h40v40h-40zm41 0h40v40h-40zm41 0h40v40h-40zm41 0h40v40h-40zm41 0h40v40h-40z"/><path fill="#0E0E10" d="M1493.5 451h40v40h-40z"/><path fill="#070708" d="M1534.5 451h40v40h-40zm41 0h40v40h-40zm41 0h40v40h-40zm41 0h40v40h-40zm41 0h40v40h-40zm41 0h40v40h-40zm41 0h40v40h-40zm41 0h40v40h-40zm41 0h40v40h-40zm-1845 41h40v40h-40zm41 0h40v40h-40zm41 0h40v40h-40zm41 0h40v40h-40zm41 0h40v40h-40zm41 0h40v40h-40zm41 0h40v40h-40zm41 0h40v40h-40zm41 0h40v40h-40zm41 0h40v40h-40zm41 0h40v40h-40zm41 0h40v40h-40zm41 0h40v40h-40zm41 0h40v40h-40zm41 0h40v40h-40zm41 0h40v40h-40zm41 0h40v40h-40zm41 0h40v40h-40zm41 0h40v40h-40zm41 0h40v40h-40z"/><path fill="#0E0E10" d="M837.5 492h40v40h-40z"/><path fill="#070708" d="M878.5 492h40v40h-40zm41 0h40v40h-40zm41 0h40v40h-40zm41 0h40v40h-40zm41 0h40v40h-40zm41 0h40v40h-40zm41 0h40v40h-40zm41 0h40v40h-40zm41 0h40v40h-40zm41 0h40v40h-40zm41 0h40v40h-40zm41 0h40v40h-40zm41 0h40v40h-40zm41 0h40v40h-40zm41 0h40v40h-40zm41 0h40v40h-40zm41 0h40v40h-40zm41 0h40v40h-40zm41 0h40v40h-40zm41 0h40v40h-40zm41 0h40v40h-40zm41 0h40v40h-40zm41 0h40v40h-40zm41 0h40v40h-40zm41 0h40v40h-40zm-1845 41h40v40h-40zm41 0h40v40h-40zm41 0h40v40h-40z"/><path fill="#0E0E10" d="M140.5 533h40v40h-40z"/><path fill="#070708" d="M181.5 533h40v40h-40zm41 0h40v40h-40zm41 0h40v40h-40zm41 0h40v40h-40zm41 0h40v40h-40zm41 0h40v40h-40zm41 0h40v40h-40zm41 0h40v40h-40zm41 0h40v40h-40zm41 0h40v40h-40zm41 0h40v40h-40zm41 0h40v40h-40zm41 0h40v40h-40zm41 0h40v40h-40zm41 0h40v40h-40zm41 0h40v40h-40zm41 0h40v40h-40zm41 0h40v40h-40zm41 0h40v40h-40zm41 0h40v40h-40zm41 0h40v40h-40zm41 0h40v40h-40zm41 0h40v40h-40zm41 0h40v40h-40zm41 0h40v40h-40z"/><path fill="#0E0E10" d="M1206.5 533h40v40h-40z"/><path fill="#070708" d="M1247.5 533h40v40h-40zm41 0h40v40h-40zm41 0h40v40h-40zm41 0h40v40h-40zm41 0h40v40h-40zm41 0h40v40h-40zm41 0h40v40h-40zm41 0h40v40h-40zm41 0h40v40h-40zm41 0h40v40h-40zm41 0h40v40h-40zm41 0h40v40h-40zm41 0h40v40h-40zm41 0h40v40h-40zm41 0h40v40h-40zm41 0h40v40h-40zm-1845 41h40v40h-40zm41 0h40v40h-40zm41 0h40v40h-40zm41 0h40v40h-40zm41 0h40v40h-40zm41 0h40v40h-40zm41 0h40v40h-40zm41 0h40v40h-40zm41 0h40v40h-40zm41 0h40v40h-40zm41 0h40v40h-40zm41 0h40v40h-40z"/><path fill="#0E0E10" d="M509.5 574h40v40h-40z"/><path fill="#070708" d="M550.5 574h40v40h-40zm41 0h40v40h-40zm41 0h40v40h-40zm41 0h40v40h-40zm41 0h40v40h-40zm41 0h40v40h-40zm41 0h40v40h-40zm41 0h40v40h-40zm41 0h40v40h-40zm41 0h40v40h-40zm41 0h40v40h-40zm41 0h40v40h-40zm41 0h40v40h-40zm41 0h40v40h-40zm41 0h40v40h-40zm41 0h40v40h-40zm41 0h40v40h-40zm41 0h40v40h-40zm41 0h40v40h-40zm41 0h40v40h-40zm41 0h40v40h-40zm41 0h40v40h-40zm41 0h40v40h-40zm41 0h40v40h-40zm41 0h40v40h-40zm41 0h40v40h-40zm41 0h40v40h-40zm41 0h40v40h-40zm41 0h40v40h-40zm41 0h40v40h-40zm41 0h40v40h-40zm41 0h40v40h-40zm41 0h40v40h-40zm-1845 41h40v40h-40zm41 0h40v40h-40zm41 0h40v40h-40zm41 0h40v40h-40zm41 0h40v40h-40zm41 0h40v40h-40zm41 0h40v40h-40zm41 0h40v40h-40zm41 0h40v40h-40zm41 0h40v40h-40zm41 0h40v40h-40zm41 0h40v40h-40zm41 0h40v40h-40zm41 0h40v40h-40zm41 0h40v40h-40zm41 0h40v40h-40zm41 0h40v40h-40zm41 0h40v40h-40zm41 0h40v40h-40zm41 0h40v40h-40zm41 0h40v40h-40zm41 0h40v40h-40zm41 0h40v40h-40zm41 0h40v40h-40zm41 0h40v40h-40zm41 0h40v40h-40zm41 0h40v40h-40zm41 0h40v40h-40zm41 0h40v40h-40zm41 0h40v40h-40zm41 0h40v40h-40zm41 0h40v40h-40zm41 0h40v40h-40zm41 0h40v40h-40zm41 0h40v40h-40zm41 0h40v40h-40zm41 0h40v40h-40zm41 0h40v40h-40zm41 0h40v40h-40zm41 0h40v40h-40zm41 0h40v40h-40zm41 0h40v40h-40zm41 0h40v40h-40zm41 0h40v40h-40zm41 0h40v40h-40zm41 0h40v40h-40zm-1845 41h40v40h-40zm41 0h40v40h-40zm41 0h40v40h-40zm41 0h40v40h-40zm41 0h40v40h-40zm41 0h40v40h-40zm41 0h40v40h-40zm41 0h40v40h-40zm41 0h40v40h-40zm41 0h40v40h-40zm41 0h40v40h-40zm41 0h40v40h-40zm41 0h40v40h-40zm41 0h40v40h-40zm41 0h40v40h-40zm41 0h40v40h-40zm41 0h40v40h-40zm41 0h40v40h-40zm41 0h40v40h-40zm41 0h40v40h-40zm41 0h40v40h-40zm41 0h40v40h-40zm41 0h40v40h-40zm41 0h40v40h-40zm41 0h40v40h-40z"/><path fill="#0E0E10" d="M1042.5 656h40v40h-40z"/><path fill="#070708" d="M1083.5 656h40v40h-40zm41 0h40v40h-40zm41 0h40v40h-40zm41 0h40v40h-40zm41 0h40v40h-40zm41 0h40v40h-40zm41 0h40v40h-40zm41 0h40v40h-40zm41 0h40v40h-40z"/><path fill="#0E0E10" d="M1452.5 656h40v40h-40z"/><path fill="#070708" d="M1493.5 656h40v40h-40zm41 0h40v40h-40zm41 0h40v40h-40zm41 0h40v40h-40zm41 0h40v40h-40zm41 0h40v40h-40z"/><path fill="#0E0E10" d="M1739.5 656h40v40h-40z"/><path fill="#070708" d="M1780.5 656h40v40h-40zm41 0h40v40h-40zm41 0h40v40h-40zm-1845 41h40v40h-40zm41 0h40v40h-40z"/><path fill="#0E0E10" d="M99.5 697h40v40h-40z"/><path fill="#070708" d="M140.5 697h40v40h-40zm41 0h40v40h-40zm41 0h40v40h-40zm41 0h40v40h-40zm41 0h40v40h-40zm41 0h40v40h-40zm41 0h40v40h-40zm41 0h40v40h-40zm41 0h40v40h-40zm41 0h40v40h-40zm41 0h40v40h-40zm41 0h40v40h-40zm41 0h40v40h-40zm41 0h40v40h-40zm41 0h40v40h-40zm41 0h40v40h-40zm41 0h40v40h-40zm41 0h40v40h-40zm41 0h40v40h-40zm41 0h40v40h-40zm41 0h40v40h-40zm41 0h40v40h-40zm41 0h40v40h-40zm41 0h40v40h-40zm41 0h40v40h-40zm41 0h40v40h-40zm41 0h40v40h-40zm41 0h40v40h-40zm41 0h40v40h-40zm41 0h40v40h-40zm41 0h40v40h-40zm41 0h40v40h-40zm41 0h40v40h-40zm41 0h40v40h-40zm41 0h40v40h-40zm41 0h40v40h-40zm41 0h40v40h-40zm41 0h40v40h-40zm41 0h40v40h-40zm41 0h40v40h-40zm41 0h40v40h-40zm41 0h40v40h-40zm41 0h40v40h-40zm-1845 41h40v40h-40zm41 0h40v40h-40zm41 0h40v40h-40zm41 0h40v40h-40zm41 0h40v40h-40zm41 0h40v40h-40zm41 0h40v40h-40zm41 0h40v40h-40zm41 0h40v40h-40zm41 0h40v40h-40zm41 0h40v40h-40zm41 0h40v40h-40zm41 0h40v40h-40zm41 0h40v40h-40zm41 0h40v40h-40zm41 0h40v40h-40zm41 0h40v40h-40zm41 0h40v40h-40zm41 0h40v40h-40zm41 0h40v40h-40zm41 0h40v40h-40zm41 0h40v40h-40zm41 0h40v40h-40zm41 0h40v40h-40zm41 0h40v40h-40zm41 0h40v40h-40zm41 0h40v40h-40zm41 0h40v40h-40zm41 0h40v40h-40zm41 0h40v40h-40zm41 0h40v40h-40zm41 0h40v40h-40zm41 0h40v40h-40zm41 0h40v40h-40zm41 0h40v40h-40zm41 0h40v40h-40zm41 0h40v40h-40zm41 0h40v40h-40zm41 0h40v40h-40zm41 0h40v40h-40zm41 0h40v40h-40zm41 0h40v40h-40zm41 0h40v40h-40zm41 0h40v40h-40zm41 0h40v40h-40zm41 0h40v40h-40zm-1845 41h40v40h-40zm41 0h40v40h-40zm41 0h40v40h-40zm41 0h40v40h-40zm41 0h40v40h-40zm41 0h40v40h-40zm41 0h40v40h-40zm41 0h40v40h-40zm41 0h40v40h-40zm41 0h40v40h-40zm41 0h40v40h-40zm41 0h40v40h-40zm41 0h40v40h-40zm41 0h40v40h-40zm41 0h40v40h-40zm41 0h40v40h-40zm41 0h40v40h-40z"/><path fill="#0E0E10" d="M714.5 779h40v40h-40z"/><path fill="#070708" d="M755.5 779h40v40h-40zm41 0h40v40h-40zm41 0h40v40h-40zm41 0h40v40h-40zm41 0h40v40h-40zm41 0h40v40h-40zm41 0h40v40h-40zm41 0h40v40h-40zm41 0h40v40h-40zm41 0h40v40h-40zm41 0h40v40h-40zm41 0h40v40h-40zm41 0h40v40h-40zm41 0h40v40h-40zm41 0h40v40h-40zm41 0h40v40h-40zm41 0h40v40h-40zm41 0h40v40h-40zm41 0h40v40h-40zm41 0h40v40h-40zm41 0h40v40h-40zm41 0h40v40h-40zm41 0h40v40h-40zm41 0h40v40h-40zm41 0h40v40h-40zm41 0h40v40h-40zm41 0h40v40h-40zm41 0h40v40h-40zm-1845 41h40v40h-40zm41 0h40v40h-40zm41 0h40v40h-40zm41 0h40v40h-40zm41 0h40v40h-40zm41 0h40v40h-40zm41 0h40v40h-40z"/><path fill="#0E0E10" d="M304.5 820h40v40h-40z"/><path fill="#070708" d="M345.5 820h40v40h-40zm41 0h40v40h-40zm41 0h40v40h-40zm41 0h40v40h-40zm41 0h40v40h-40zm41 0h40v40h-40zm41 0h40v40h-40zm41 0h40v40h-40zm41 0h40v40h-40zm41 0h40v40h-40zm41 0h40v40h-40zm41 0h40v40h-40zm41 0h40v40h-40zm41 0h40v40h-40zm41 0h40v40h-40zm41 0h40v40h-40zm41 0h40v40h-40zm41 0h40v40h-40zm41 0h40v40h-40z"/><path fill="#0E0E10" d="M1124.5 820h40v40h-40z"/><path fill="#070708" d="M1165.5 820h40v40h-40zm41 0h40v40h-40zm41 0h40v40h-40zm41 0h40v40h-40zm41 0h40v40h-40zm41 0h40v40h-40zm41 0h40v40h-40zm41 0h40v40h-40zm41 0h40v40h-40zm41 0h40v40h-40zm41 0h40v40h-40zm41 0h40v40h-40zm41 0h40v40h-40zm41 0h40v40h-40zm41 0h40v40h-40zm41 0h40v40h-40zm41 0h40v40h-40zm41 0h40v40h-40zm-1845 41h40v40h-40zm41 0h40v40h-40zm41 0h40v40h-40zm41 0h40v40h-40zm41 0h40v40h-40zm41 0h40v40h-40zm41 0h40v40h-40zm41 0h40v40h-40zm41 0h40v40h-40zm41 0h40v40h-40zm41 0h40v40h-40zm41 0h40v40h-40zm41 0h40v40h-40zm41 0h40v40h-40zm41 0h40v40h-40zm41 0h40v40h-40zm41 0h40v40h-40zm41 0h40v40h-40zm41 0h40v40h-40zm41 0h40v40h-40zm41 0h40v40h-40zm41 0h40v40h-40z"/><path fill="#0E0E10" d="M919.5 861h40v40h-40z"/><path fill="#070708" d="M960.5 861h40v40h-40zm41 0h40v40h-40zm41 0h40v40h-40zm41 0h40v40h-40zm41 0h40v40h-40zm41 0h40v40h-40zm41 0h40v40h-40zm41 0h40v40h-40zm41 0h40v40h-40zm41 0h40v40h-40zm41 0h40v40h-40zm41 0h40v40h-40zm41 0h40v40h-40zm41 0h40v40h-40zm41 0h40v40h-40zm41 0h40v40h-40zm41 0h40v40h-40zm41 0h40v40h-40zm41 0h40v40h-40zm41 0h40v40h-40zm41 0h40v40h-40zm41 0h40v40h-40zm41 0h40v40h-40zm-1845 41h40v40h-40zm41 0h40v40h-40zm41 0h40v40h-40zm41 0h40v40h-40zm41 0h40v40h-40zm41 0h40v40h-40zm41 0h40v40h-40zm41 0h40v40h-40zm41 0h40v40h-40zm41 0h40v40h-40zm41 0h40v40h-40zm41 0h40v40h-40zm41 0h40v40h-40zm41 0h40v40h-40zm41 0h40v40h-40zm41 0h40v40h-40zm41 0h40v40h-40zm41 0h40v40h-40zm41 0h40v40h-40zm41 0h40v40h-40zm41 0h40v40h-40zm41 0h40v40h-40zm41 0h40v40h-40zm41 0h40v40h-40zm41 0h40v40h-40zm41 0h40v40h-40zm41 0h40v40h-40zm41 0h40v40h-40zm41 0h40v40h-40zm41 0h40v40h-40zm41 0h40v40h-40zm41 0h40v40h-40zm41 0h40v40h-40zm41 0h40v40h-40zm41 0h40v40h-40zm41 0h40v40h-40zm41 0h40v40h-40zm41 0h40v40h-40zm41 0h40v40h-40zm41 0h40v40h-40zm41 0h40v40h-40zm41 0h40v40h-40zm41 0h40v40h-40zm41 0h40v40h-40zm41 0h40v40h-40zm41 0h40v40h-40zm-1845 41h40v40h-40zm41 0h40v40h-40zm41 0h40v40h-40zm41 0h40v40h-40zm41 0h40v40h-40zm41 0h40v40h-40zm41 0h40v40h-40zm41 0h40v40h-40zm41 0h40v40h-40zm41 0h40v40h-40zm41 0h40v40h-40zm41 0h40v40h-40zm41 0h40v40h-40zm41 0h40v40h-40zm41 0h40v40h-40zm41 0h40v40h-40zm41 0h40v40h-40zm41 0h40v40h-40zm41 0h40v40h-40zm41 0h40v40h-40zm41 0h40v40h-40zm41 0h40v40h-40zm41 0h40v40h-40zm41 0h40v40h-40zm41 0h40v40h-40zm41 0h40v40h-40zm41 0h40v40h-40zm41 0h40v40h-40zm41 0h40v40h-40zm41 0h40v40h-40zm41 0h40v40h-40zm41 0h40v40h-40zm41 0h40v40h-40zm41 0h40v40h-40zm41 0h40v40h-40zm41 0h40v40h-40zm41 0h40v40h-40zm41 0h40v40h-40zm41 0h40v40h-40zm41 0h40v40h-40zm41 0h40v40h-40zm41 0h40v40h-40zm41 0h40v40h-40zm41 0h40v40h-40zm41 0h40v40h-40zm41 0h40v40h-40zm-1845 41h40v40h-40zm41 0h40v40h-40zm41 0h40v40h-40zm41 0h40v40h-40zm41 0h40v40h-40zm41 0h40v40h-40zm41 0h40v40h-40zm41 0h40v40h-40zm41 0h40v40h-40zm41 0h40v40h-40zm41 0h40v40h-40zm41 0h40v40h-40zm41 0h40v40h-40z"/><path fill="#0E0E10" d="M550.5 984h40v40h-40z"/><path fill="#070708" d="M591.5 984h40v40h-40zm41 0h40v40h-40zm41 0h40v40h-40zm41 0h40v40h-40zm41 0h40v40h-40zm41 0h40v40h-40zm41 0h40v40h-40zm41 0h40v40h-40zm41 0h40v40h-40zm41 0h40v40h-40zm41 0h40v40h-40zm41 0h40v40h-40zm41 0h40v40h-40zm41 0h40v40h-40zm41 0h40v40h-40zm41 0h40v40h-40zm41 0h40v40h-40zm41 0h40v40h-40zm41 0h40v40h-40z"/><path fill="#0E0E10" d="M1370.5 984h40v40h-40z"/><path fill="#070708" d="M1411.5 984h40v40h-40zm41 0h40v40h-40zm41 0h40v40h-40zm41 0h40v40h-40z"/><path fill="#0E0E10" d="M1575.5 984h40v40h-40z"/><path fill="#070708" d="M1616.5 984h40v40h-40zm41 0h40v40h-40zm41 0h40v40h-40zm41 0h40v40h-40zm41 0h40v40h-40zm41 0h40v40h-40zm41 0h40v40h-40zm-1845 41h40v40h-40zm41 0h40v40h-40zm41 0h40v40h-40z"/><path fill="#0E0E10" d="M140.5 1025h40v40h-40z"/><path fill="#070708" d="M181.5 1025h40v40h-40zm41 0h40v40h-40zm41 0h40v40h-40zm41 0h40v40h-40zm41 0h40v40h-40zm41 0h40v40h-40zm41 0h40v40h-40zm41 0h40v40h-40zm41 0h40v40h-40zm41 0h40v40h-40zm41 0h40v40h-40zm41 0h40v40h-40zm41 0h40v40h-40zm41 0h40v40h-40zm41 0h40v40h-40zm41 0h40v40h-40zm41 0h40v40h-40zm41 0h40v40h-40zm41 0h40v40h-40zm41 0h40v40h-40zm41 0h40v40h-40zm41 0h40v40h-40z"/><path fill="#0E0E10" d="M1083.5 1025h40v40h-40z"/><path fill="#070708" d="M1124.5 1025h40v40h-40zm41 0h40v40h-40zm41 0h40v40h-40zm41 0h40v40h-40zm41 0h40v40h-40zm41 0h40v40h-40zm41 0h40v40h-40zm41 0h40v40h-40zm41 0h40v40h-40zm41 0h40v40h-40zm41 0h40v40h-40zm41 0h40v40h-40zm41 0h40v40h-40zm41 0h40v40h-40zm41 0h40v40h-40zm41 0h40v40h-40zm41 0h40v40h-40zm41 0h40v40h-40zm41 0h40v40h-40zm-1845 41h40v40h-40zm41 0h40v40h-40zm41 0h40v40h-40zm41 0h40v40h-40zm41 0h40v40h-40zm41 0h40v40h-40zm41 0h40v40h-40zm41 0h40v40h-40zm41 0h40v40h-40zm41 0h40v40h-40zm41 0h40v40h-40zm41 0h40v40h-40zm41 0h40v40h-40zm41 0h40v40h-40zm41 0h40v40h-40zm41 0h40v40h-40zm41 0h40v40h-40zm41 0h40v40h-40zm41 0h40v40h-40zm41 0h40v40h-40zm41 0h40v40h-40zm41 0h40v40h-40zm41 0h40v40h-40zm41 0h40v40h-40zm41 0h40v40h-40zm41 0h40v40h-40zm41 0h40v40h-40zm41 0h40v40h-40zm41 0h40v40h-40zm41 0h40v40h-40zm41 0h40v40h-40zm41 0h40v40h-40zm41 0h40v40h-40zm41 0h40v40h-40zm41 0h40v40h-40zm41 0h40v40h-40zm41 0h40v40h-40zm41 0h40v40h-40zm41 0h40v40h-40zm41 0h40v40h-40zm41 0h40v40h-40zm41 0h40v40h-40zm41 0h40v40h-40zm41 0h40v40h-40zm41 0h40v40h-40zm41 0h40v40h-40zm-1845 41h40v40h-40zm41 0h40v40h-40zm41 0h40v40h-40zm41 0h40v40h-40zm41 0h40v40h-40zm41 0h40v40h-40zm41 0h40v40h-40zm41 0h40v40h-40zm41 0h40v40h-40zm41 0h40v40h-40zm41 0h40v40h-40zm41 0h40v40h-40zm41 0h40v40h-40zm41 0h40v40h-40zm41 0h40v40h-40zm41 0h40v40h-40zm41 0h40v40h-40zm41 0h40v40h-40zm41 0h40v40h-40zm41 0h40v40h-40zm41 0h40v40h-40zm41 0h40v40h-40zm41 0h40v40h-40zm41 0h40v40h-40zm41 0h40v40h-40zm41 0h40v40h-40zm41 0h40v40h-40zm41 0h40v40h-40zm41 0h40v40h-40zm41 0h40v40h-40zm41 0h40v40h-40zm41 0h40v40h-40zm41 0h40v40h-40zm41 0h40v40h-40zm41 0h40v40h-40zm41 0h40v40h-40zm41 0h40v40h-40zm41 0h40v40h-40zm41 0h40v40h-40zm41 0h40v40h-40zm41 0h40v40h-40zm41 0h40v40h-40zm41 0h40v40h-40zm41 0h40v40h-40zm41 0h40v40h-40zm41 0h40v40h-40zm-1845 41h40v40h-40zm41 0h40v40h-40zm41 0h40v40h-40zm41 0h40v40h-40zm41 0h40v40h-40z"/><path fill="#0E0E10" d="M222.5 1148h40v40h-40z"/><path fill="#070708" d="M263.5 1148h40v40h-40zm41 0h40v40h-40zm41 0h40v40h-40zm41 0h40v40h-40zm41 0h40v40h-40zm41 0h40v40h-40zm41 0h40v40h-40zm41 0h40v40h-40zm41 0h40v40h-40zm41 0h40v40h-40zm41 0h40v40h-40zm41 0h40v40h-40zm41 0h40v40h-40zm41 0h40v40h-40z"/><path fill="#0E0E10" d="M837.5 1148h40v40h-40z"/><path fill="#070708" d="M878.5 1148h40v40h-40zm41 0h40v40h-40zm41 0h40v40h-40zm41 0h40v40h-40zm41 0h40v40h-40zm41 0h40v40h-40zm41 0h40v40h-40zm41 0h40v40h-40zm41 0h40v40h-40zm41 0h40v40h-40zm41 0h40v40h-40zm41 0h40v40h-40zm41 0h40v40h-40zm41 0h40v40h-40zm41 0h40v40h-40zm41 0h40v40h-40zm41 0h40v40h-40zm41 0h40v40h-40zm41 0h40v40h-40zm41 0h40v40h-40zm41 0h40v40h-40zm41 0h40v40h-40z"/><path fill="#0E0E10" d="M1780.5 1148h40v40h-40z"/><path fill="#070708" d="M1821.5 1148h40v40h-40zm41 0h40v40h-40zm-1845 41h40v40h-40zm41 0h40v40h-40zm41 0h40v40h-40zm41 0h40v40h-40zm41 0h40v40h-40zm41 0h40v40h-40zm41 0h40v40h-40zm41 0h40v40h-40zm41 0h40v40h-40zm41 0h40v40h-40zm41 0h40v40h-40zm41 0h40v40h-40zm41 0h40v40h-40zm41 0h40v40h-40zm41 0h40v40h-40zm41 0h40v40h-40zm41 0h40v40h-40zm41 0h40v40h-40zm41 0h40v40h-40zm41 0h40v40h-40zm41 0h40v40h-40zm41 0h40v40h-40zm41 0h40v40h-40zm41 0h40v40h-40zm41 0h40v40h-40zm41 0h40v40h-40zm41 0h40v40h-40zm41 0h40v40h-40zm41 0h40v40h-40zm41 0h40v40h-40zm41 0h40v40h-40zm41 0h40v40h-40zm41 0h40v40h-40zm41 0h40v40h-40zm41 0h40v40h-40zm41 0h40v40h-40zm41 0h40v40h-40zm41 0h40v40h-40zm41 0h40v40h-40zm41 0h40v40h-40zm41 0h40v40h-40zm41 0h40v40h-40zm41 0h40v40h-40zm41 0h40v40h-40zm41 0h40v40h-40zm41 0h40v40h-40zm-1845 41h40v40h-40zm41 0h40v40h-40zm41 0h40v40h-40zm41 0h40v40h-40zm41 0h40v40h-40zm41 0h40v40h-40zm41 0h40v40h-40zm41 0h40v40h-40zm41 0h40v40h-40zm41 0h40v40h-40zm41 0h40v40h-40zm41 0h40v40h-40zm41 0h40v40h-40zm41 0h40v40h-40zm41 0h40v40h-40zm41 0h40v40h-40zm41 0h40v40h-40zm41 0h40v40h-40zm41 0h40v40h-40zm41 0h40v40h-40zm41 0h40v40h-40zm41 0h40v40h-40zm41 0h40v40h-40zm41 0h40v40h-40zm41 0h40v40h-40zm41 0h40v40h-40zm41 0h40v40h-40zm41 0h40v40h-40zm41 0h40v40h-40zm41 0h40v40h-40zm41 0h40v40h-40zm41 0h40v40h-40zm41 0h40v40h-40zm41 0h40v40h-40zm41 0h40v40h-40zm41 0h40v40h-40zm41 0h40v40h-40z"/><path fill="#0E0E10" d="M1534.5 1230h40v40h-40z"/><path fill="#070708" d="M1575.5 1230h40v40h-40zm41 0h40v40h-40zm41 0h40v40h-40zm41 0h40v40h-40zm41 0h40v40h-40zm41 0h40v40h-40zm41 0h40v40h-40zm41 0h40v40h-40zm-1845 41h40v40h-40zm41 0h40v40h-40zm41 0h40v40h-40z"/><path fill="#0E0E10" d="M140.5 1271h40v40h-40z"/><path fill="#070708" d="M181.5 1271h40v40h-40zm41 0h40v40h-40zm41 0h40v40h-40zm41 0h40v40h-40zm41 0h40v40h-40zm41 0h40v40h-40zm41 0h40v40h-40zm41 0h40v40h-40zm41 0h40v40h-40zm41 0h40v40h-40zm41 0h40v40h-40z"/><path fill="#0E0E10" d="M632.5 1271h40v40h-40z"/><path fill="#070708" d="M673.5 1271h40v40h-40zm41 0h40v40h-40zm41 0h40v40h-40zm41 0h40v40h-40zm41 0h40v40h-40zm41 0h40v40h-40zm41 0h40v40h-40zm41 0h40v40h-40z"/><path fill="#0E0E10" d="M1001.5 1271h40v40h-40z"/><path fill="#070708" d="M1042.5 1271h40v40h-40zm41 0h40v40h-40zm41 0h40v40h-40zm41 0h40v40h-40zm41 0h40v40h-40zm41 0h40v40h-40zm41 0h40v40h-40zm41 0h40v40h-40zm41 0h40v40h-40zm41 0h40v40h-40zm41 0h40v40h-40zm41 0h40v40h-40zm41 0h40v40h-40zm41 0h40v40h-40zm41 0h40v40h-40zm41 0h40v40h-40zm41 0h40v40h-40zm41 0h40v40h-40zm41 0h40v40h-40zm41 0h40v40h-40zm41 0h40v40h-40zm-1845 41h40v40h-40zm41 0h40v40h-40zm41 0h40v40h-40zm41 0h40v40h-40zm41 0h40v40h-40zm41 0h40v40h-40zm41 0h40v40h-40zm41 0h40v40h-40zm41 0h40v40h-40zm41 0h40v40h-40zm41 0h40v40h-40zm41 0h40v40h-40zm41 0h40v40h-40zm41 0h40v40h-40zm41 0h40v40h-40zm41 0h40v40h-40zm41 0h40v40h-40zm41 0h40v40h-40zm41 0h40v40h-40zm41 0h40v40h-40zm41 0h40v40h-40zm41 0h40v40h-40zm41 0h40v40h-40zm41 0h40v40h-40zm41 0h40v40h-40zm41 0h40v40h-40zm41 0h40v40h-40zm41 0h40v40h-40zm41 0h40v40h-40zm41 0h40v40h-40zm41 0h40v40h-40z"/><path fill="#0E0E10" d="M1288.5 1312h40v40h-40z"/><path fill="#070708" d="M1329.5 1312h40v40h-40zm41 0h40v40h-40zm41 0h40v40h-40zm41 0h40v40h-40zm41 0h40v40h-40zm41 0h40v40h-40zm41 0h40v40h-40zm41 0h40v40h-40zm41 0h40v40h-40zm41 0h40v40h-40zm41 0h40v40h-40zm41 0h40v40h-40zm41 0h40v40h-40zm41 0h40v40h-40zm-1845 41h40v40h-40zm41 0h40v40h-40zm41 0h40v40h-40zm41 0h40v40h-40zm41 0h40v40h-40zm41 0h40v40h-40zm41 0h40v40h-40zm41 0h40v40h-40zm41 0h40v40h-40zm41 0h40v40h-40zm41 0h40v40h-40zm41 0h40v40h-40zm41 0h40v40h-40zm41 0h40v40h-40zm41 0h40v40h-40zm41 0h40v40h-40zm41 0h40v40h-40zm41 0h40v40h-40zm41 0h40v40h-40zm41 0h40v40h-40zm41 0h40v40h-40zm41 0h40v40h-40zm41 0h40v40h-40zm41 0h40v40h-40zm41 0h40v40h-40zm41 0h40v40h-40zm41 0h40v40h-40zm41 0h40v40h-40zm41 0h40v40h-40zm41 0h40v40h-40zm41 0h40v40h-40zm41 0h40v40h-40zm41 0h40v40h-40zm41 0h40v40h-40zm41 0h40v40h-40zm41 0h40v40h-40zm41 0h40v40h-40zm41 0h40v40h-40zm41 0h40v40h-40zm41 0h40v40h-40zm41 0h40v40h-40zm41 0h40v40h-40zm41 0h40v40h-40zm41 0h40v40h-40zm41 0h40v40h-40zm41 0h40v40h-40z"/></svg>